<svg width="99" height="116" viewBox="0 0 99 116" fill="none" xmlns="http://www.w3.org/2000/svg">
<g clip-path="url(#clip0_284_5021)">
<path d="M12.1091 110.041C11.9494 109.485 11.7098 108.531 10.1926 108.531C9.31418 108.531 8.03651 109.088 8.03651 111.551C8.03651 113.14 8.67534 114.57 10.1926 114.57C11.2307 114.57 11.9494 114.014 12.1091 112.901H13.9457C13.5465 114.808 12.3486 116.159 10.1127 116.159C7.79694 116.159 6.12 114.57 6.12 111.551C6.12 108.531 7.8768 106.942 10.1127 106.942C12.7479 106.942 13.786 108.77 13.8659 110.041H12.1091Z" fill="#4F6862"/>
<path d="M21.6117 106.942C22.8096 106.942 25.844 107.419 25.844 111.551C25.844 115.682 22.8096 116.159 21.6117 116.159C20.4139 116.159 17.3795 115.682 17.3795 111.551C17.3795 107.419 20.4139 106.942 21.6117 106.942ZM21.6117 114.57C22.57 114.57 24.0074 113.934 24.0074 111.551C24.0074 109.167 22.6499 108.531 21.6117 108.531C20.6535 108.531 19.2161 109.167 19.2161 111.551C19.2161 113.934 20.5736 114.57 21.6117 114.57Z" fill="#4F6862"/>
<path d="M35.0273 107.181H36.7043V115.92H34.8676L31.2742 109.723V115.92H29.5972V107.181H31.5137L35.0273 113.298V107.181Z" fill="#4F6862"/>
<path d="M42.2142 113.219C42.2142 113.696 42.4538 114.649 44.0509 114.649C44.9293 114.649 45.8875 114.411 45.8875 113.537C45.8875 112.822 45.2487 112.663 44.2905 112.425L43.3322 112.186C41.8948 111.868 40.5373 111.551 40.5373 109.644C40.5373 108.69 41.0963 106.942 43.8912 106.942C46.6062 106.942 47.3249 108.69 47.3249 109.803H45.648C45.5681 109.405 45.4883 108.452 43.8912 108.452C43.1725 108.452 42.3739 108.69 42.3739 109.485C42.3739 110.2 42.9329 110.279 43.3322 110.359L45.4883 110.915C46.6861 111.233 47.8041 111.71 47.8041 113.299C47.8041 115.92 45.089 116.159 44.3703 116.159C41.1761 116.159 40.6171 114.331 40.6171 113.219H42.2142Z" fill="#4F6862"/>
<path d="M58.5046 112.822C58.5046 115.126 57.1471 116.079 54.9111 116.079C54.1126 116.079 52.9148 115.92 52.1162 115.046C51.6371 114.49 51.4774 113.775 51.3975 112.901V107.101H53.2342V112.742C53.2342 113.934 53.9529 114.49 54.8313 114.49C56.1089 114.49 56.5881 113.854 56.5881 112.822V107.101H58.4247V112.822H58.5046Z" fill="#4F6862"/>
<path d="M71.1216 115.92H69.4446V108.611L67.8475 115.92H66.0907L64.4937 108.611V115.92H62.8167V107.181H65.4519L67.049 114.093L68.6461 107.181H71.2813V115.92H71.1216Z" fill="#4F6862"/>
<path d="M81.7422 108.69H77.1107V110.518H81.343V112.027H77.1107V114.252H81.9818V115.762H75.3539V107.022H81.8221V108.69H81.7422Z" fill="#4F6862"/>
<path d="M85.8947 107.181H90.2867C92.6024 107.181 93.0816 108.929 93.0816 109.644C93.0816 110.597 92.6024 111.471 91.724 111.709C92.4427 112.027 92.842 112.266 92.842 113.934C92.842 115.205 92.842 115.523 93.2413 115.682V115.92H91.1651C91.0053 115.523 91.0054 115.046 91.0054 114.172C91.0054 112.981 90.9255 112.504 89.568 112.504H87.6515V115.92H85.8947V107.181ZM89.8075 110.994C90.7658 110.994 91.2449 110.677 91.2449 109.803C91.2449 109.326 91.0053 108.69 89.9672 108.69H87.6515V110.994H89.8075Z" fill="#4F6862"/>
<path d="M91.7665 20.9753H68.287C68.1057 20.9753 68.015 20.8959 68.015 20.737V5.32329V0.238359C68.015 0.0794545 67.9244 0 67.7431 0H31.1186C30.9373 0 30.8467 0.0794545 30.8467 0.238359V20.8164C30.8467 20.9753 30.756 21.0548 30.5747 21.0548H7.18584C7.00453 21.0548 6.91388 21.1342 6.91388 21.2932V53.074C6.91388 53.3123 7.18584 53.3918 7.36715 53.2329L12.8971 48.3863C12.9877 48.3069 12.9877 48.3069 12.9877 48.2274V26.537C12.9877 26.3781 13.0784 26.2986 13.2597 26.2986H30.9373H36.7392C36.9205 26.2986 37.0112 26.2192 37.0112 26.0603V20.9753V5.48219C37.0112 5.32329 37.1018 5.24384 37.2832 5.24384H61.8505C62.0318 5.24384 62.1225 5.32329 62.1225 5.48219V20.9753V26.0603C62.1225 26.2192 62.2132 26.2986 62.3945 26.2986H68.1964H85.874C86.0553 26.2986 86.146 26.3781 86.146 26.537V48.2274C86.146 48.3069 86.146 48.3863 86.2366 48.3863L91.7665 53.2329C91.9478 53.3918 92.2198 53.3123 92.2198 53.074V21.2932C92.0385 21.1342 91.9478 20.9753 91.7665 20.9753Z" fill="#4F6862"/>
<path d="M23.3223 83.2657C23.3223 83.1068 23.2317 83.0273 23.0504 83.0273H19.4242V98.0438C19.4242 98.2027 19.5148 98.2821 19.6962 98.2821H23.0504C23.2317 98.2821 23.3223 98.2027 23.3223 98.0438V83.2657Z" fill="#4F6862"/>
<path d="M77.8057 92.1643C77.715 92.0054 77.8057 91.8465 77.987 91.8465C82.2478 90.8931 82.5197 86.5232 79.7094 84.378C78.259 83.2657 76.2646 83.0273 74.2702 83.0273H66.7458C66.5645 83.0273 66.4739 83.1068 66.4739 83.2657V98.0438C66.4739 98.2027 66.5645 98.2821 66.7458 98.2821H70.1907C70.372 98.2821 70.4627 98.2027 70.4627 98.0438V85.4904C70.4627 85.3314 70.5533 85.252 70.7346 85.252H74.0889C75.8113 85.252 77.1711 86.0465 77.4431 87.1588C77.715 88.4301 77.1711 90.4958 73.0917 90.6547C72.9104 90.6547 72.729 90.8136 72.9104 90.9725L77.6244 98.1232C77.715 98.2027 77.715 98.2027 77.8057 98.2027H81.4319C81.6132 98.2027 81.7945 98.0438 81.6132 97.8849L77.8057 92.1643Z" fill="#4F6862"/>
<path d="M89.3188 95.7397V92.0054C89.3188 91.8465 89.4095 91.7671 89.5908 91.7671H97.5684C97.7497 91.7671 97.8404 91.6876 97.8404 91.5287V89.463C97.8404 89.304 97.7497 89.2246 97.5684 89.2246H89.5908C89.4095 89.2246 89.3188 89.1452 89.3188 88.9862V85.7287C89.3188 85.5698 89.4095 85.4904 89.5908 85.4904H98.6563C98.8376 85.4904 98.9282 85.4109 98.9282 85.252V83.2657C98.9282 83.1068 98.8376 83.0273 98.6563 83.0273H85.6927C85.5114 83.0273 85.4207 83.1068 85.4207 83.2657V98.0438C85.4207 98.2027 85.5114 98.2821 85.6927 98.2821H98.6563C98.8376 98.2821 98.9282 98.2027 98.9282 98.0438V96.1369C98.9282 95.978 98.8376 95.8986 98.6563 95.8986H89.5908C89.4095 95.978 89.3188 95.8191 89.3188 95.7397Z" fill="#4F6862"/>
<path d="M44.2635 90.8932C44.3542 101.54 62.6664 101.54 62.6664 90.8932C62.5758 80.1671 44.3542 80.2466 44.2635 90.8932ZM53.5103 96.137C49.9748 96.137 48.1617 93.7534 48.071 90.8932C48.071 88.0329 49.9748 85.6493 53.5103 85.6493C57.0458 85.6493 58.7683 88.0329 58.8589 90.8932C58.7683 93.7534 57.0458 96.137 53.5103 96.137Z" fill="#4F6862"/>
<path d="M10.7213 83.1862C10.7213 83.1068 10.6307 83.0273 10.4494 83.0273H8.09237H8.00171H7.91106H7.8204H5.46339C5.37273 83.0273 5.28207 83.1068 5.19142 83.1862L0.0241129 98.0438C-0.0665416 98.2027 0.114767 98.3616 0.296076 98.3616H3.6503C3.74095 98.3616 3.8316 98.2821 3.92226 98.2027L5.37273 93.8328C5.37273 93.7534 5.46338 93.6739 5.64469 93.6739H10.2681C10.3587 93.6739 10.4494 93.7534 10.54 93.8328L11.8999 98.2027C11.8999 98.2821 11.9905 98.3616 12.1718 98.3616H15.526C15.7073 98.3616 15.798 98.2027 15.798 98.0438L10.7213 83.1862ZM6.09796 90.8931L7.8204 85.7287C7.91106 85.4904 8.27368 85.4904 8.27368 85.7287L9.99611 90.8931C10.0868 91.052 9.90546 91.2109 9.72415 91.2109H6.36993C6.18862 91.2109 6.00731 91.052 6.09796 90.8931Z" fill="#4F6862"/>
<path d="M39.2775 95.5806C39.1869 95.5012 39.0962 95.4217 39.0056 95.5012C35.47 96.8519 31.028 95.1039 31.028 90.893C31.028 86.682 35.3794 84.9341 39.0056 86.2847C39.0962 86.3642 39.2775 86.2848 39.2775 86.2053L40.6373 84.219C40.728 84.1395 40.6373 83.9806 40.5467 83.9012C39.9121 83.5834 39.0056 83.2656 37.8271 83.0272C33.4756 82.2327 27.1298 84.2984 27.1298 90.8135C27.1298 97.3286 33.4756 99.3943 37.8271 98.5998C39.0056 98.3615 39.9121 98.0437 40.5467 97.7259C40.6373 97.6464 40.728 97.4875 40.6373 97.408L39.2775 95.5806Z" fill="#4F6862"/>
<path d="M98.9282 74.0495V67.2166C98.9282 67.1372 98.9282 67.1372 98.8375 67.0577L49.8841 24.1536L49.5215 23.7563L0.205399 66.9783C0.114745 67.0577 0.114746 67.0577 0.114746 67.1372V73.97C0.114746 74.2084 0.38671 74.2879 0.568019 74.1289L24.0475 53.5509C24.1382 53.4714 24.1382 53.4714 24.2289 53.4714H30.756C30.9373 53.4714 31.0279 53.5509 31.0279 53.7098V69.2029V74.5262H37.1018H62.2131H68.287V69.2029V53.7098C68.287 53.5509 68.3776 53.4714 68.5589 53.4714H75.0861C75.1767 53.4714 75.1767 53.4714 75.2674 53.5509L98.7469 74.1289C98.6562 74.3673 98.9282 74.2879 98.9282 74.0495ZM68.1057 48.307H62.3038C62.1225 48.307 62.0318 48.3865 62.0318 48.5454V53.6303V69.044C62.0318 69.2029 61.9412 69.2824 61.7598 69.2824H37.1925C37.0112 69.2824 36.9205 69.2029 36.9205 69.044V53.5509V48.4659C36.9205 48.307 36.8298 48.2276 36.6485 48.2276H30.8466H30.0307L49.2495 31.3837C49.3402 31.3043 49.5215 31.3043 49.6121 31.3837L68.8309 48.2276H68.1057V48.307Z" fill="#4F6862"/>
</g>
<defs>
<clipPath id="clip0_284_5021">
<rect width="99" height="116" fill="white"/>
</clipPath>
</defs>
</svg>
