<svg width="193" height="97" viewBox="0 0 193 97" fill="none" xmlns="http://www.w3.org/2000/svg">
<path d="M33.3132 70.8118V42.3062H41.8625V70.8118H33.3132Z" fill="#284553"/>
<path d="M48.1422 70.8119L61.9718 25.3169H74.7327L88.5623 70.8119H79.7617L67.4408 30.6878H69.0752L56.9429 70.8119H48.1422ZM56.44 61.3338V53.309H80.3274V61.3338H56.44Z" fill="#284553"/>
<path d="M111.387 71.7597C107.741 71.7597 104.535 71.0225 101.769 69.5481C99.0028 68.0526 96.8445 65.957 95.294 63.261C93.7433 60.5649 92.968 57.395 92.968 53.7513V25.3801L101.643 25.3169V53.6881C101.643 55.1835 101.894 56.542 102.397 57.7636C102.9 58.9853 103.592 60.0384 104.472 60.923C105.373 61.8076 106.41 62.4922 107.583 62.9766C108.778 63.44 110.046 63.6717 111.387 63.6717C112.77 63.6717 114.048 63.4294 115.221 62.945C116.416 62.4607 117.453 61.7761 118.332 60.8915C119.213 60.0068 119.894 58.9537 120.375 57.7321C120.879 56.5104 121.13 55.1625 121.13 53.6881V25.3169H129.805V53.7513C129.805 57.395 129.029 60.5649 127.479 63.261C125.928 65.957 123.771 68.0526 121.004 69.5481C118.238 71.0225 115.032 71.7597 111.387 71.7597Z" fill="#284553"/>
<path d="M133.534 70.8119L147.363 25.3169H160.123L173.954 70.8119H165.153L152.832 30.6878H154.467L142.334 70.8119H133.534ZM141.832 61.3338V53.309H165.718V61.3338H141.832Z" fill="#284553"/>
<path d="M34.0482 90.254V81.855H35.4467V90.254H34.0482Z" fill="#284553"/>
<path d="M41.5193 90.254V87.221C41.5193 87.0228 41.5057 86.803 41.4787 86.5619C41.4516 86.3209 41.3878 86.0894 41.2872 85.8679C41.1905 85.6423 41.0435 85.4576 40.8462 85.3138C40.6528 85.1698 40.3898 85.0979 40.057 85.0979C39.8791 85.0979 39.7031 85.1271 39.529 85.1854C39.3549 85.2438 39.1963 85.3449 39.0532 85.4887C38.9139 85.6287 38.8017 85.8231 38.7167 86.072C38.6316 86.317 38.589 86.632 38.589 87.0168L37.7592 86.6611C37.7592 86.1244 37.8617 85.6384 38.0668 85.2029C38.2756 84.7674 38.5812 84.4214 38.9835 84.1647C39.3858 83.9041 39.881 83.7739 40.4691 83.7739C40.9333 83.7739 41.3162 83.8516 41.618 84.0072C41.9197 84.1627 42.1595 84.3611 42.3375 84.6021C42.5154 84.8433 42.647 85.0999 42.732 85.3721C42.8171 85.6442 42.8713 85.9028 42.8945 86.1479C42.9216 86.3889 42.9351 86.5852 42.9351 86.7369V90.254H41.5193ZM37.1731 90.254V83.9548H38.4207V85.9087H38.589V90.254H37.1731Z" fill="#284553"/>
<path d="M48.1224 90.2542C47.7084 90.332 47.3023 90.365 46.9038 90.3534C46.5093 90.3456 46.1553 90.2737 45.842 90.1376C45.5287 89.9976 45.2907 89.7779 45.1282 89.4785C44.9851 89.2062 44.9097 88.9283 44.902 88.6444C44.8942 88.3606 44.8903 88.0398 44.8903 87.682V82.2051H46.283V87.6004C46.283 87.8531 46.2849 88.0748 46.2888 88.2652C46.2965 88.4558 46.3371 88.6113 46.4106 88.7319C46.5499 88.9652 46.7723 89.0954 47.078 89.1227C47.3836 89.1499 47.7317 89.1343 48.1224 89.076V90.2542ZM43.7531 85.0573V83.955H48.1224V85.0573H43.7531Z" fill="#284553"/>
<path d="M52.0017 90.4291C51.3674 90.4291 50.8102 90.291 50.3306 90.015C49.8509 89.7388 49.4756 89.3558 49.2049 88.8659C48.938 88.3759 48.8044 87.8121 48.8044 87.1745C48.8044 86.4862 48.936 85.8893 49.1991 85.3837C49.4621 84.8744 49.8277 84.4797 50.2958 84.1998C50.7638 83.9198 51.3055 83.7798 51.9205 83.7798C52.5704 83.7798 53.1217 83.9334 53.5742 84.2406C54.0307 84.5439 54.3692 84.9736 54.5897 85.5296C54.8102 86.0857 54.8934 86.7408 54.8392 87.4952H53.4524V86.9819C53.4485 86.2976 53.3286 85.7979 53.0926 85.483C52.8567 85.168 52.4853 85.0105 51.9785 85.0105C51.4059 85.0105 50.9805 85.1894 50.7019 85.5471C50.4234 85.901 50.2841 86.4201 50.2841 87.1044C50.2841 87.7422 50.4234 88.236 50.7019 88.586C50.9805 88.9359 51.3866 89.1109 51.9205 89.1109C52.2648 89.1109 52.5607 89.0351 52.8083 88.8834C53.0598 88.7279 53.2532 88.5042 53.3885 88.2127L54.7696 88.6326C54.5298 89.2003 54.1583 89.6417 53.6555 89.9566C53.1565 90.2715 52.6052 90.4291 52.0017 90.4291ZM49.8431 87.4952V86.4337H54.1545V87.4952H49.8431Z" fill="#284553"/>
<path d="M56.1339 90.2542V83.955H57.3699V85.4889L57.219 85.2906C57.2964 85.0806 57.3989 84.8901 57.5265 84.719C57.6581 84.544 57.8148 84.4002 57.9966 84.2873C58.1513 84.1824 58.3215 84.1007 58.5071 84.0424C58.6967 83.9802 58.8902 83.9433 59.0875 83.9316C59.2848 83.9161 59.4763 83.9239 59.6619 83.955V85.2673C59.4763 85.2128 59.2615 85.1953 59.0178 85.2147C58.778 85.2343 58.5614 85.3023 58.3679 85.4189C58.1745 85.5239 58.0159 85.658 57.8921 85.8214C57.7722 85.9847 57.6832 86.1714 57.6252 86.3813C57.5672 86.5875 57.5382 86.811 57.5382 87.0521V90.2542H56.1339Z" fill="#284553"/>
<path d="M65.1037 90.254V87.221C65.1037 87.0228 65.0902 86.803 65.0631 86.5619C65.0361 86.3209 64.9723 86.0894 64.8717 85.8679C64.775 85.6423 64.628 85.4576 64.4307 85.3138C64.2372 85.1698 63.9742 85.0979 63.6415 85.0979C63.4636 85.0979 63.2875 85.1271 63.1135 85.1854C62.9394 85.2438 62.7807 85.3449 62.6377 85.4887C62.4983 85.6287 62.3862 85.8231 62.3011 86.072C62.2159 86.317 62.1735 86.632 62.1735 87.0168L61.3437 86.6611C61.3437 86.1244 61.4462 85.6384 61.6512 85.2029C61.8601 84.7674 62.1657 84.4214 62.568 84.1647C62.9703 83.9041 63.4654 83.7739 64.0535 83.7739C64.5177 83.7739 64.9006 83.8516 65.2024 84.0072C65.5041 84.1627 65.744 84.3611 65.922 84.6021C66.0999 84.8433 66.2314 85.0999 66.3165 85.3721C66.4016 85.6442 66.4557 85.9028 66.479 86.1479C66.5061 86.3889 66.5196 86.5852 66.5196 86.7369V90.254H65.1037ZM60.7576 90.254V83.9548H62.0052V85.9087H62.1735V90.254H60.7576Z" fill="#284553"/>
<path d="M69.7863 90.4291C69.3337 90.4291 68.9507 90.3436 68.6374 90.1724C68.324 89.9975 68.0861 89.7661 67.9236 89.4784C67.765 89.1906 67.6857 88.8737 67.6857 88.5277C67.6857 88.2243 67.736 87.9521 67.8366 87.7111C67.9371 87.466 68.0919 87.2561 68.3008 87.0811C68.5097 86.9022 68.7804 86.7565 69.1132 86.6436C69.3647 86.562 69.6586 86.4881 69.9951 86.422C70.3355 86.3559 70.7031 86.2957 71.0977 86.2412C71.4961 86.1828 71.9119 86.1206 72.3452 86.0546L71.8463 86.3404C71.85 85.9049 71.7533 85.5841 71.5561 85.3779C71.3588 85.1719 71.0261 85.0689 70.558 85.0689C70.2756 85.0689 70.0029 85.1349 69.7399 85.2671C69.4768 85.3994 69.293 85.6268 69.1886 85.9496L67.9121 85.5471C68.0668 85.0144 68.3607 84.5867 68.794 84.2639C69.2311 83.9412 69.8192 83.7798 70.558 83.7798C71.1151 83.7798 71.6045 83.8712 72.0261 84.054C72.4517 84.2367 72.7669 84.5362 72.9719 84.9521C73.0841 85.1738 73.1518 85.4012 73.175 85.6346C73.1983 85.8641 73.2098 86.1148 73.2098 86.387V90.254H71.9855V88.8892L72.1886 89.1109C71.9062 89.5658 71.5754 89.9003 71.1963 90.1141C70.821 90.324 70.3511 90.4291 69.7863 90.4291ZM70.0648 89.3092C70.382 89.3092 70.6528 89.2528 70.8772 89.1401C71.1015 89.0273 71.2795 88.8892 71.411 88.7259C71.5464 88.5626 71.6373 88.409 71.6838 88.2651C71.7572 88.0863 71.7979 87.8821 71.8056 87.6528C71.8172 87.4194 71.823 87.2309 71.823 87.0869L72.2523 87.2153C71.8307 87.2814 71.469 87.3397 71.1673 87.3902C70.8655 87.4408 70.6064 87.4894 70.3898 87.536C70.1732 87.5788 69.9816 87.6275 69.8153 87.6819C69.6528 87.7402 69.5155 87.8083 69.4033 87.886C69.2911 87.9638 69.204 88.0532 69.1422 88.1544C69.0841 88.2554 69.0552 88.374 69.0552 88.5102C69.0552 88.6657 69.0938 88.8037 69.1712 88.9242C69.2485 89.0409 69.3608 89.1342 69.5077 89.2042C69.6586 89.2742 69.8443 89.3092 70.0648 89.3092Z" fill="#284553"/>
<path d="M78.3935 90.2542C77.9797 90.332 77.5735 90.365 77.1749 90.3534C76.7804 90.3456 76.4265 90.2737 76.1131 90.1376C75.7998 89.9976 75.5618 89.7779 75.3995 89.4785C75.2563 89.2062 75.1808 88.9283 75.1731 88.6444C75.1653 88.3606 75.1615 88.0398 75.1615 87.682V82.2051H76.5541V87.6004C76.5541 87.8531 76.556 88.0748 76.5599 88.2652C76.5677 88.4558 76.6083 88.6113 76.6818 88.7319C76.821 88.9652 77.0435 89.0954 77.3491 89.1227C77.6547 89.1499 78.0029 89.1343 78.3935 89.076V90.2542ZM74.0242 85.0573V83.955H78.3935V85.0573H74.0242Z" fill="#284553"/>
<path d="M79.8572 82.9985V81.7095H81.2555V82.9985H79.8572ZM79.8572 90.2543V83.9551H81.2555V90.2543H79.8572Z" fill="#284553"/>
<path d="M85.7616 90.4291C85.135 90.4291 84.5876 90.2871 84.1195 90.0033C83.6515 89.7194 83.2877 89.3286 83.0286 88.8309C82.7733 88.3293 82.6456 87.7538 82.6456 87.1044C82.6456 86.4434 82.7772 85.8641 83.0402 85.3664C83.3033 84.8685 83.6689 84.4797 84.1369 84.1998C84.605 83.9198 85.1465 83.7798 85.7616 83.7798C86.3922 83.7798 86.9415 83.9217 87.4096 84.2056C87.8777 84.4894 88.2413 84.8821 88.5005 85.3837C88.7596 85.8816 88.8893 86.4551 88.8893 87.1044C88.8893 87.7577 88.7577 88.3351 88.4946 88.8367C88.2355 89.3344 87.8718 89.7252 87.4037 90.0091C86.9357 90.289 86.3883 90.4291 85.7616 90.4291ZM85.7616 89.1109C86.3187 89.1109 86.7326 88.9242 87.0034 88.551C87.2742 88.1777 87.4096 87.6955 87.4096 87.1044C87.4096 86.494 87.2722 86.0079 86.9976 85.6463C86.7229 85.2807 86.311 85.098 85.7616 85.098C85.3865 85.098 85.0769 85.1835 84.8332 85.3546C84.5934 85.5219 84.4155 85.7571 84.2993 86.0604C84.1833 86.3598 84.1253 86.7079 84.1253 87.1044C84.1253 87.715 84.2626 88.2029 84.5373 88.5685C84.8158 88.93 85.224 89.1109 85.7616 89.1109Z" fill="#284553"/>
<path d="M94.5022 90.254V87.221C94.5022 87.0228 94.4886 86.803 94.4616 86.5619C94.4345 86.3209 94.3706 86.0894 94.2701 85.8679C94.1734 85.6423 94.0263 85.4576 93.8291 85.3138C93.6357 85.1698 93.3726 85.0979 93.0399 85.0979C92.862 85.0979 92.686 85.1271 92.5119 85.1854C92.3378 85.2438 92.1792 85.3449 92.0361 85.4887C91.8968 85.6287 91.7846 85.8231 91.6996 86.072C91.6144 86.317 91.5719 86.632 91.5719 87.0168L90.7421 86.6611C90.7421 86.1244 90.8446 85.6384 91.0497 85.2029C91.2585 84.7674 91.5641 84.4214 91.9664 84.1647C92.3687 83.9041 92.8639 83.7739 93.4519 83.7739C93.9162 83.7739 94.2991 83.8516 94.6009 84.0072C94.9026 84.1627 95.1424 84.3611 95.3203 84.6021C95.4983 84.8433 95.6299 85.0999 95.715 85.3721C95.8 85.6442 95.8542 85.9028 95.8775 86.1479C95.9045 86.3889 95.9181 86.5852 95.9181 86.7369V90.254H94.5022ZM90.156 90.254V83.9548H91.4036V85.9087H91.5719V90.254H90.156Z" fill="#284553"/>
<path d="M99.1847 90.4291C98.7321 90.4291 98.3491 90.3436 98.0358 90.1724C97.7224 89.9975 97.4845 89.7661 97.322 89.4784C97.1634 89.1906 97.0841 88.8737 97.0841 88.5277C97.0841 88.2243 97.1345 87.9521 97.2351 87.7111C97.3356 87.466 97.4903 87.2561 97.6993 87.0811C97.9081 86.9022 98.1789 86.7565 98.5116 86.6436C98.7631 86.562 99.057 86.4881 99.3936 86.422C99.734 86.3559 100.102 86.2957 100.496 86.2412C100.895 86.1828 101.31 86.1206 101.744 86.0546L101.245 86.3404C101.248 85.9049 101.152 85.5841 100.955 85.3779C100.757 85.1719 100.425 85.0689 99.9565 85.0689C99.6741 85.0689 99.4013 85.1349 99.1383 85.2671C98.8752 85.3994 98.6914 85.6268 98.5871 85.9496L97.3105 85.5471C97.4652 85.0144 97.7592 84.5867 98.1924 84.2639C98.6295 83.9412 99.2175 83.7798 99.9565 83.7798C100.514 83.7798 101.003 83.8712 101.424 84.054C101.85 84.2367 102.165 84.5362 102.37 84.9521C102.483 85.1738 102.55 85.4012 102.573 85.6346C102.597 85.8641 102.608 86.1148 102.608 86.387V90.254H101.384V88.8892L101.587 89.1109C101.305 89.5658 100.974 89.9003 100.595 90.1141C100.219 90.324 99.7495 90.4291 99.1847 90.4291ZM99.4632 89.3092C99.7804 89.3092 100.051 89.2528 100.276 89.1401C100.5 89.0273 100.678 88.8892 100.809 88.7259C100.945 88.5626 101.036 88.409 101.082 88.2651C101.156 88.0863 101.196 87.8821 101.204 87.6528C101.216 87.4194 101.221 87.2309 101.221 87.0869L101.651 87.2153C101.229 87.2814 100.867 87.3397 100.566 87.3902C100.264 87.4408 100.005 87.4894 99.7882 87.536C99.5716 87.5788 99.38 87.6275 99.2138 87.6819C99.0513 87.7402 98.9139 87.8083 98.8017 87.886C98.6896 87.9638 98.6025 88.0532 98.5406 88.1544C98.4826 88.2554 98.4535 88.374 98.4535 88.5102C98.4535 88.6657 98.4922 88.8037 98.5696 88.9242C98.647 89.0409 98.7592 89.1342 98.9062 89.2042C99.057 89.2742 99.2427 89.3092 99.4632 89.3092Z" fill="#284553"/>
<path d="M104.235 90.2542V81.6802H105.633V90.2542H104.235Z" fill="#284553"/>
<path d="M109.115 90.254L111.749 81.855H113.797L116.432 90.254H114.992L112.602 82.7182H112.915L110.554 90.254H109.115ZM110.583 88.4343V87.1219H114.969V88.4343H110.583Z" fill="#284553"/>
<path d="M117.48 90.2542V83.955H118.717V85.4889L118.566 85.2906C118.643 85.0806 118.746 84.8901 118.874 84.719C119.004 84.544 119.162 84.4002 119.344 84.2873C119.498 84.1824 119.669 84.1007 119.854 84.0424C120.044 83.9802 120.237 83.9433 120.434 83.9316C120.632 83.9161 120.824 83.9239 121.009 83.955V85.2673C120.824 85.2128 120.608 85.1953 120.364 85.2147C120.125 85.2343 119.908 85.3023 119.714 85.4189C119.521 85.5239 119.363 85.658 119.239 85.8214C119.119 85.9847 119.03 86.1714 118.972 86.3813C118.914 86.5875 118.885 86.811 118.885 87.0521V90.2542H117.48Z" fill="#284553"/>
<path d="M129.642 90.2541V86.428C129.642 85.9963 129.536 85.66 129.323 85.4188C129.11 85.1739 128.822 85.0515 128.458 85.0515C128.234 85.0515 128.033 85.1039 127.855 85.2089C127.677 85.31 127.535 85.4616 127.431 85.6639C127.327 85.8621 127.275 86.0994 127.275 86.3754L126.653 86.008C126.65 85.5725 126.747 85.1895 126.944 84.8589C127.145 84.5245 127.415 84.264 127.756 84.0773C128.096 83.8907 128.476 83.7974 128.894 83.7974C129.586 83.7974 130.116 84.0073 130.483 84.4273C130.855 84.8434 131.04 85.3916 131.04 86.0722V90.2541H129.642ZM122.105 90.2541V83.9549H123.34V85.9088H123.514V90.2541H122.105ZM125.881 90.2541V86.4455C125.881 86.0061 125.776 85.6639 125.563 85.4188C125.35 85.1739 125.06 85.0515 124.692 85.0515C124.336 85.0515 124.05 85.1739 123.834 85.4188C123.621 85.6639 123.514 85.9827 123.514 86.3754L122.888 85.9554C122.888 85.5472 122.989 85.1797 123.189 84.8531C123.39 84.5264 123.662 84.2699 124.002 84.0831C124.346 83.8927 124.731 83.7974 125.157 83.7974C125.625 83.7974 126.016 83.8985 126.328 84.1006C126.646 84.299 126.882 84.5711 127.037 84.9172C127.196 85.2594 127.275 85.6464 127.275 86.078V90.2541H125.881Z" fill="#284553"/>
<path d="M134.973 90.4291C134.2 90.4291 133.571 90.254 133.088 89.9042C132.604 89.5542 132.31 89.0623 132.206 88.4284L133.634 88.2068C133.707 88.5178 133.869 88.7629 134.121 88.9417C134.372 89.1206 134.69 89.21 135.072 89.21C135.409 89.21 135.668 89.1439 135.85 89.0118C136.036 88.8756 136.128 88.6909 136.128 88.4576C136.128 88.3137 136.094 88.1991 136.024 88.1135C135.958 88.024 135.811 87.9385 135.582 87.8569C135.355 87.7752 135.005 87.6722 134.533 87.5477C134.006 87.4077 133.589 87.2581 133.28 87.0986C132.97 86.9353 132.747 86.7429 132.612 86.5212C132.477 86.2996 132.409 86.0312 132.409 85.7162C132.409 85.3235 132.511 84.9814 132.716 84.6897C132.921 84.398 133.208 84.1745 133.575 84.0189C133.943 83.8595 134.376 83.7798 134.875 83.7798C135.363 83.7798 135.794 83.8556 136.169 84.0072C136.549 84.159 136.854 84.3747 137.085 84.6547C137.318 84.9346 137.461 85.2632 137.516 85.6404L136.088 85.8971C136.053 85.6288 135.931 85.4169 135.722 85.2613C135.517 85.1058 135.243 85.0183 134.898 84.9989C134.57 84.9794 134.305 85.03 134.103 85.1505C133.902 85.2671 133.801 85.4324 133.801 85.6463C133.801 85.7668 133.842 85.8699 133.923 85.9554C134.005 86.0409 134.167 86.1265 134.411 86.212C134.658 86.2976 135.026 86.4026 135.514 86.527C136.013 86.6553 136.411 86.8031 136.708 86.9703C137.01 87.1336 137.227 87.33 137.358 87.5594C137.494 87.7888 137.561 88.0669 137.561 88.3934C137.561 89.0273 137.332 89.525 136.871 89.8867C136.414 90.2482 135.782 90.4291 134.973 90.4291Z" fill="#284553"/>
<path d="M144.522 90.429C143.856 90.429 143.27 90.2929 142.763 90.0207C142.26 89.7486 141.866 89.3655 141.58 88.8717C141.297 88.3778 141.156 87.7984 141.156 87.1336V81.8666L142.572 81.855V87.0986C142.572 87.4135 142.624 87.6954 142.728 87.9442C142.837 88.1931 142.982 88.405 143.164 88.58C143.346 88.7511 143.554 88.8814 143.791 88.9708C144.027 89.0603 144.27 89.105 144.522 89.105C144.781 89.105 145.026 89.0603 145.258 88.9708C145.494 88.8774 145.703 88.7453 145.885 88.5742C146.067 88.3993 146.21 88.1873 146.314 87.9384C146.419 87.6896 146.472 87.4096 146.472 87.0986V81.855H147.887V87.1336C147.887 87.7984 147.744 88.3778 147.458 88.8717C147.175 89.3655 146.781 89.7486 146.274 90.0207C145.77 90.2929 145.187 90.429 144.522 90.429Z" fill="#284553"/>
<path d="M149.497 90.254L149.508 81.855H150.925V86.9877L153.216 83.9548H154.963L152.532 87.1044L155.172 90.254H153.321L150.925 87.221V90.254H149.497Z" fill="#284553"/>
<path d="M155.753 90.2542V83.955H156.989V85.4889L156.838 85.2906C156.916 85.0806 157.018 84.8901 157.145 84.719C157.277 84.544 157.434 84.4002 157.616 84.2873C157.771 84.1824 157.941 84.1007 158.127 84.0424C158.315 83.9802 158.51 83.9433 158.707 83.9316C158.904 83.9161 159.095 83.9239 159.282 83.955V85.2673C159.095 85.2128 158.881 85.1953 158.637 85.2147C158.398 85.2343 158.18 85.3023 157.987 85.4189C157.794 85.5239 157.635 85.658 157.511 85.8214C157.391 85.9847 157.303 86.1714 157.244 86.3813C157.186 86.5875 157.157 86.811 157.157 87.0521V90.2542H155.753Z" fill="#284553"/>
<path d="M161.994 90.4291C161.541 90.4291 161.158 90.3436 160.844 90.1724C160.532 89.9975 160.293 89.7661 160.131 89.4784C159.973 89.1906 159.893 88.8737 159.893 88.5277C159.893 88.2243 159.944 87.9521 160.044 87.7111C160.144 87.466 160.299 87.2561 160.508 87.0811C160.717 86.9022 160.987 86.7565 161.32 86.6436C161.572 86.562 161.866 86.4881 162.202 86.422C162.543 86.3559 162.911 86.2957 163.305 86.2412C163.703 86.1828 164.119 86.1206 164.552 86.0546L164.053 86.3404C164.058 85.9049 163.96 85.5841 163.764 85.3779C163.566 85.1719 163.234 85.0689 162.766 85.0689C162.483 85.0689 162.21 85.1349 161.947 85.2671C161.684 85.3994 161.5 85.6268 161.396 85.9496L160.119 85.5471C160.274 85.0144 160.568 84.5867 161.001 84.2639C161.439 83.9412 162.027 83.7798 162.766 83.7798C163.322 83.7798 163.811 83.8712 164.233 84.054C164.659 84.2367 164.974 84.5362 165.179 84.9521C165.291 85.1738 165.359 85.4012 165.382 85.6346C165.405 85.8641 165.417 86.1148 165.417 86.387V90.254H164.193V88.8892L164.396 89.1109C164.113 89.5658 163.783 89.9003 163.403 90.1141C163.028 90.324 162.558 90.4291 161.994 90.4291ZM162.272 89.3092C162.589 89.3092 162.86 89.2528 163.084 89.1401C163.309 89.0273 163.487 88.8892 163.618 88.7259C163.754 88.5626 163.845 88.409 163.891 88.2651C163.965 88.0863 164.006 87.8821 164.013 87.6528C164.024 87.4194 164.03 87.2309 164.03 87.0869L164.459 87.2153C164.038 87.2814 163.676 87.3397 163.374 87.3902C163.073 87.4408 162.813 87.4894 162.597 87.536C162.381 87.5788 162.189 87.6275 162.022 87.6819C161.86 87.7402 161.723 87.8083 161.611 87.886C161.499 87.9638 161.411 88.0532 161.349 88.1544C161.291 88.2554 161.263 88.374 161.263 88.5102C161.263 88.6657 161.301 88.8037 161.378 88.9242C161.456 89.0409 161.568 89.1342 161.715 89.2042C161.866 89.2742 162.051 89.3092 162.272 89.3092Z" fill="#284553"/>
<path d="M167.044 82.9985V81.7095H168.442V82.9985H167.044ZM167.044 90.2543V83.9551H168.442V90.2543H167.044Z" fill="#284553"/>
<path d="M174.515 90.254V87.221C174.515 87.0228 174.502 86.803 174.474 86.5619C174.448 86.3209 174.383 86.0894 174.282 85.8679C174.186 85.6423 174.039 85.4576 173.842 85.3138C173.649 85.1698 173.385 85.0979 173.052 85.0979C172.875 85.0979 172.698 85.1271 172.524 85.1854C172.35 85.2438 172.191 85.3449 172.048 85.4887C171.91 85.6287 171.798 85.8231 171.712 86.072C171.627 86.317 171.585 86.632 171.585 87.0168L170.755 86.6611C170.755 86.1244 170.857 85.6384 171.062 85.2029C171.271 84.7674 171.577 84.4214 171.98 84.1647C172.381 83.9041 172.877 83.7739 173.465 83.7739C173.929 83.7739 174.312 83.8516 174.614 84.0072C174.916 84.1627 175.155 84.3611 175.333 84.6021C175.511 84.8433 175.642 85.0999 175.728 85.3721C175.813 85.6442 175.867 85.9028 175.891 86.1479C175.917 86.3889 175.931 86.5852 175.931 86.7369V90.254H174.515ZM170.168 90.254V83.9548H171.416V85.9087H171.585V90.254H170.168Z" fill="#284553"/>
<path d="M180.192 90.4291C179.558 90.4291 179.001 90.291 178.521 90.015C178.041 89.7388 177.666 89.3558 177.395 88.8659C177.128 88.3759 176.994 87.8121 176.994 87.1745C176.994 86.4862 177.126 85.8893 177.389 85.3837C177.652 84.8744 178.018 84.4797 178.486 84.1998C178.954 83.9198 179.495 83.7798 180.111 83.7798C180.761 83.7798 181.312 83.9334 181.765 84.2406C182.221 84.5439 182.559 84.9736 182.78 85.5296C183.001 86.0857 183.084 86.7408 183.029 87.4952H181.643V86.9819C181.638 86.2976 181.519 85.7979 181.282 85.483C181.047 85.168 180.676 85.0105 180.169 85.0105C179.596 85.0105 179.171 85.1894 178.892 85.5471C178.614 85.901 178.474 86.4201 178.474 87.1044C178.474 87.7422 178.614 88.236 178.892 88.586C179.171 88.9359 179.576 89.1109 180.111 89.1109C180.455 89.1109 180.751 89.0351 180.998 88.8834C181.25 88.7279 181.443 88.5042 181.579 88.2127L182.96 88.6326C182.72 89.2003 182.348 89.6417 181.846 89.9566C181.347 90.2715 180.795 90.4291 180.192 90.4291ZM178.034 87.4952V86.4337H182.345V87.4952H178.034Z" fill="#284553"/>
<path d="M37.5596 64.3372H37.5451C36.348 64.3372 35.151 64.2638 33.9831 64.1464L34.0123 63.8529C35.1802 63.9849 36.3626 64.0436 37.5451 64.0436L37.5596 64.3372ZM41.1362 64.1464L41.107 63.8529C42.2894 63.7208 43.4573 63.5153 44.6105 63.251L44.669 63.5446C43.5157 63.8088 42.3333 64.0143 41.1362 64.1464ZM30.4358 63.5446C29.2679 63.2804 28.1147 62.9428 26.9906 62.5464L27.0928 62.2675C28.2022 62.6638 29.3556 62.9868 30.5088 63.251L30.4358 63.5446ZM48.1287 62.5464L48.0265 62.2675C49.136 61.8712 50.2455 61.4162 51.3111 60.9024L51.4424 61.1666C50.3622 61.6804 49.2528 62.1501 48.1287 62.5464ZM23.6768 61.1666C22.5966 60.6529 21.5455 60.0656 20.5382 59.4199L20.6988 59.1703C21.7061 59.8015 22.7425 60.3886 23.8083 60.9024L23.6768 61.1666ZM54.5665 59.4051L54.4059 59.1556C55.3986 58.5245 56.3767 57.8198 57.2963 57.086L57.4861 57.3208C56.5663 58.0693 55.5884 58.774 54.5665 59.4051ZM17.6041 57.3355C16.6698 56.5868 15.7792 55.7795 14.9326 54.9281L15.137 54.7226C15.969 55.5593 16.8596 56.3666 17.7939 57.1006L17.6041 57.3355ZM60.1721 54.9134L59.9678 54.7079C60.7998 53.8712 61.6028 52.9758 62.3327 52.0364L62.5662 52.2271C61.8217 53.1666 61.0189 54.0767 60.1721 54.9134ZM12.5385 52.2566C11.794 51.3171 11.0933 50.3336 10.4656 49.3208L10.7137 49.1594C11.3415 50.1575 12.0421 51.141 12.7721 52.0657L12.5385 52.2566ZM8.72838 46.1649C8.20284 45.0786 7.75032 43.9631 7.35617 42.8328L7.63353 42.7301C8.02767 43.8456 8.48022 44.9612 8.99115 46.0328L8.72838 46.1649ZM6.34891 39.3685C6.08615 38.1943 5.88176 37.0053 5.75038 35.8163L6.04234 35.787C6.17373 36.9612 6.37812 38.1502 6.64087 39.3099L6.34891 39.3685ZM69.3397 35.7723L69.0478 35.7429C69.1792 34.5686 69.2376 33.3649 69.2376 32.1759V32.1025H69.5295V32.1759C69.5442 33.3796 69.4712 34.5833 69.3397 35.7723ZM5.83798 32.2053H5.54602V32.1759C5.54602 30.9869 5.60439 29.7834 5.73577 28.609L6.02773 28.6383C5.89635 29.798 5.83798 30.9869 5.83798 32.1759V32.2053ZM69.0331 28.5356C68.9018 27.3614 68.6974 26.1723 68.4346 25.0127L68.7266 24.9393C68.9893 26.1136 69.1938 27.3026 69.3252 28.4916L69.0331 28.5356ZM6.62627 25.1154L6.3343 25.0568C6.59707 23.8824 6.93284 22.7228 7.32698 21.5925L7.60433 21.6952C7.21018 22.7962 6.88903 23.9558 6.62627 25.1154ZM67.4565 21.5778C67.0624 20.4623 66.6099 19.3467 66.0844 18.2751L66.3471 18.143C66.8727 19.2146 67.3252 20.3448 67.7339 21.4751L67.4565 21.5778ZM8.96197 18.3778L8.69919 18.2457C9.21013 17.1595 9.79407 16.1027 10.4364 15.0899L10.6845 15.2513C10.0568 16.2494 9.47289 17.3064 8.96197 18.3778ZM64.3618 15.1632C63.7341 14.165 63.0334 13.1815 62.3034 12.2568L62.537 12.066C63.2815 13.0055 63.9822 13.9889 64.6245 15.0018L64.3618 15.1632ZM12.7428 12.3302L12.5093 12.1394C13.2538 11.1999 14.0567 10.2899 14.9034 9.45316L15.1077 9.65865C14.2611 10.4953 13.4728 11.4054 12.7428 12.3302ZM59.924 9.59995C59.0919 8.76325 58.2014 7.95591 57.2671 7.22196L57.4569 6.98711C58.3912 7.73573 59.2963 8.54307 60.1283 9.39444L59.924 9.59995ZM17.7501 7.28069L17.5603 7.04582C18.4945 6.29721 19.4726 5.59262 20.4799 4.94676L20.6405 5.1963C19.6478 5.84217 18.6697 6.53207 17.7501 7.28069ZM54.362 5.15226C53.3548 4.52107 52.3183 3.93391 51.2526 3.42015L51.3841 3.15595C52.4498 3.6697 53.5154 4.25686 54.5227 4.90273L54.362 5.15226ZM23.7499 3.46419L23.6185 3.19997C24.6841 2.67154 25.8082 2.21651 26.9323 1.82018L27.0345 2.09906C25.9104 2.49539 24.8155 2.95044 23.7499 3.46419ZM47.9681 2.05503C46.8587 1.6587 45.7054 1.33576 44.5522 1.07154L44.6105 0.777967C45.7784 1.04218 46.9317 1.37981 48.0557 1.77614L47.9681 2.05503ZM30.4358 1.10091L30.3774 0.807334C31.5452 0.543116 32.7276 0.337616 33.9101 0.205507L33.9393 0.499083C32.7714 0.631192 31.589 0.836692 30.4358 1.10091ZM41.0486 0.48439C39.8954 0.352281 38.713 0.293577 37.5451 0.293577H37.5013V0H37.5451C38.7275 0 39.91 0.0587045 41.0778 0.190814L41.0486 0.48439Z" fill="#284553"/>
<path d="M37.5451 3.31755C53.3694 3.31755 66.2449 16.2643 66.2449 32.1761C66.2449 48.0879 53.3694 61.0346 37.5451 61.0346C21.7207 61.0346 8.84514 48.0879 8.84514 32.1761C8.84514 16.2643 21.7207 3.31755 37.5451 3.31755ZM37.5451 2.05518C21.0054 2.05518 7.58972 15.5303 7.58972 32.1761C7.58972 48.8071 20.9908 62.297 37.5451 62.297C54.0847 62.297 67.1951 48.8218 67.1951 32.1761C67.1804 15.545 54.0847 2.05518 37.5451 2.05518Z" fill="#284553"/>
<path d="M37.5452 35.4054C39.3189 35.4054 40.7567 33.9597 40.7567 32.1761C40.7567 30.3926 39.3189 28.9468 37.5452 28.9468C35.7715 28.9468 34.3336 30.3926 34.3336 32.1761C34.3336 33.9597 35.7715 35.4054 37.5452 35.4054Z" fill="#FF4D00"/>
<path d="M37.5449 40.1615C33.1655 40.1615 29.6035 36.5798 29.6035 32.1761C29.6035 27.7726 33.1655 24.1909 37.5449 24.1909C41.9243 24.1909 45.4863 27.7726 45.4863 32.1761C45.4863 36.5798 41.9243 40.1615 37.5449 40.1615ZM37.5449 24.4845C33.3261 24.4845 29.8955 27.934 29.8955 32.1761C29.8955 36.4184 33.3261 39.8679 37.5449 39.8679C41.7637 39.8679 45.1944 36.4184 45.1944 32.1761C45.1944 27.934 41.7637 24.4845 37.5449 24.4845Z" fill="#284553"/>
<path d="M37.5451 37.8566C34.4212 37.8566 31.881 35.3025 31.881 32.1613C31.881 29.0199 34.4212 26.4658 37.5451 26.4658C40.6691 26.4658 43.2092 29.0199 43.2092 32.1613C43.2092 35.3171 40.6691 37.8566 37.5451 37.8566ZM37.5451 26.7741C34.5817 26.7741 32.173 29.1961 32.173 32.1759C32.173 35.1557 34.5817 37.5777 37.5451 37.5777C40.5085 37.5777 42.9173 35.1557 42.9173 32.1759C42.9026 29.1961 40.5085 26.7741 37.5451 26.7741Z" fill="#284553"/>
<path d="M28.9031 19.1704H28.6111V23.5301H28.9031V19.1704Z" fill="#284553"/>
<path d="M28.7716 23.3687H24.3191V23.6622H28.7716V23.3687Z" fill="#284553"/>
<path d="M50.7272 23.3687H46.2748V23.6622H50.7272V23.3687Z" fill="#284553"/>
<path d="M46.4205 19.1704H46.1285V23.5301H46.4205V19.1704Z" fill="#284553"/>
<path d="M46.4205 40.9248H46.1285V45.2843H46.4205V40.9248Z" fill="#284553"/>
<path d="M50.7272 40.7778H46.2748V41.0714H50.7272V40.7778Z" fill="#284553"/>
<path d="M28.7716 40.7778H24.3191V41.0714H28.7716V40.7778Z" fill="#284553"/>
<path d="M28.9031 40.9248H28.6111V45.2843H28.9031V40.9248Z" fill="#284553"/>
<path d="M59.5593 32.631H48.4647C48.1144 32.631 47.837 32.3521 47.837 31.9998C47.837 31.6475 48.1144 31.3687 48.4647 31.3687H59.5593C59.9096 31.3687 60.187 31.6475 60.187 31.9998C60.187 32.3521 59.8951 32.631 59.5593 32.631Z" fill="#284553"/>
<path d="M26.7425 32.631H15.5311C15.1807 32.631 14.9034 32.3521 14.9034 31.9998C14.9034 31.6475 15.1807 31.3687 15.5311 31.3687H26.7425C27.0928 31.3687 27.3702 31.6475 27.3702 31.9998C27.3702 32.3521 27.0928 32.631 26.7425 32.631Z" fill="#284553"/>
<path d="M37.5451 54.7665C37.1947 54.7665 36.9174 54.4875 36.9174 54.1353V42.9794C36.9174 42.6271 37.1947 42.3481 37.5451 42.3481C37.8954 42.3481 38.1727 42.6271 38.1727 42.9794V54.1353C38.1727 54.4875 37.8954 54.7665 37.5451 54.7665Z" fill="#284553"/>
<path d="M37.5451 21.7686C37.1947 21.7686 36.9174 21.4897 36.9174 21.1375V9.86409C36.9174 9.51179 37.1947 9.23291 37.5451 9.23291C37.8954 9.23291 38.1727 9.51179 38.1727 9.86409V21.1375C38.1727 21.4897 37.8954 21.7686 37.5451 21.7686Z" fill="#284553"/>
</svg>
