<svg width="98" height="116" viewBox="0 0 98 116" fill="none" xmlns="http://www.w3.org/2000/svg">
<g clip-path="url(#clip0_284_5042)">
<path d="M90.5163 21.0549H67.4417C67.2636 21.0549 67.1745 20.9755 67.1745 20.8166V5.40288V0.317948C67.1745 0.159044 67.0854 0.0795898 66.9072 0.0795898H30.9145C30.7363 0.0795898 30.6472 0.159044 30.6472 0.317948V20.896C30.6472 21.0549 30.5581 21.1344 30.3799 21.1344H7.39447C7.21629 21.1344 7.1272 21.2138 7.1272 21.3727V53.1536C7.1272 53.3919 7.39447 53.4714 7.57265 53.3125L13.0072 48.4659C13.0963 48.3864 13.0963 48.3864 13.0963 48.307V26.6166C13.0963 26.4577 13.1854 26.3782 13.3636 26.3782H30.7363H36.4381C36.6163 26.3782 36.7054 26.2988 36.7054 26.1399V21.0549V5.56178C36.7054 5.40288 36.7945 5.32343 36.9727 5.32343H61.1163C61.2945 5.32343 61.3836 5.40288 61.3836 5.56178V21.0549V26.1399C61.3836 26.2988 61.4727 26.3782 61.6508 26.3782H67.3527H84.7254C84.9036 26.3782 84.9927 26.4577 84.9927 26.6166V48.307C84.9927 48.3864 84.9927 48.4659 85.0817 48.4659L90.5163 53.3125C90.6945 53.4714 90.9618 53.3919 90.9618 53.1536V21.3727C90.7836 21.2138 90.6945 21.0549 90.5163 21.0549Z" fill="#8D8D8D"/>
<path d="M23.2527 83.3453C23.2527 83.1864 23.1636 83.1069 22.9854 83.1069H19.4218V98.1234C19.4218 98.2823 19.5108 98.3617 19.689 98.3617H22.9854C23.1636 98.3617 23.2527 98.2823 23.2527 98.1234V83.3453Z" fill="#8D8D8D"/>
<path d="M76.7963 92.2439C76.7072 92.085 76.7963 91.9261 76.9745 91.9261C81.1617 90.9727 81.429 86.6028 78.6672 84.4576C77.2417 83.3453 75.2817 83.1069 73.3217 83.1069H65.9272C65.749 83.1069 65.6599 83.1864 65.6599 83.3453V98.1234C65.6599 98.2823 65.749 98.3617 65.9272 98.3617H69.3126C69.4908 98.3617 69.5799 98.2823 69.5799 98.1234V85.5699C69.5799 85.411 69.669 85.3316 69.8472 85.3316H73.1436C74.8363 85.3316 76.1726 86.1261 76.4399 87.2384C76.7072 88.5097 76.1726 90.5754 72.1636 90.7343C71.9854 90.7343 71.8072 90.8932 71.9854 91.0521L76.6181 98.2028C76.7072 98.2823 76.7072 98.2823 76.7963 98.2823H80.3599C80.5381 98.2823 80.7163 98.1234 80.5381 97.9645L76.7963 92.2439Z" fill="#8D8D8D"/>
<path d="M88.1109 95.8193V92.085C88.1109 91.9261 88.2 91.8467 88.3782 91.8467H96.2182C96.3964 91.8467 96.4855 91.7672 96.4855 91.6083V89.5425C96.4855 89.3836 96.3964 89.3042 96.2182 89.3042H88.3782C88.2 89.3042 88.1109 89.2247 88.1109 89.0658V85.8083C88.1109 85.6494 88.2 85.5699 88.3782 85.5699H97.2873C97.4655 85.5699 97.5546 85.4905 97.5546 85.3316V83.3453C97.5546 83.1864 97.4655 83.1069 97.2873 83.1069H84.5473C84.3691 83.1069 84.28 83.1864 84.28 83.3453V98.1234C84.28 98.2823 84.3691 98.3617 84.5473 98.3617H97.2873C97.4655 98.3617 97.5546 98.2823 97.5546 98.1234V96.2165C97.5546 96.0576 97.4655 95.9782 97.2873 95.9782H88.3782C88.2 96.0576 88.1109 95.8987 88.1109 95.8193Z" fill="#8D8D8D"/>
<path d="M43.8326 90.9728C43.9217 101.619 61.9181 101.619 61.9181 90.9728C61.829 80.2467 43.9217 80.3262 43.8326 90.9728ZM52.9199 96.2166C49.4454 96.2166 47.6636 93.833 47.5745 90.9728C47.5745 88.1125 49.4454 85.7289 52.9199 85.7289C56.3945 85.7289 58.0872 88.1125 58.1763 90.9728C58.0872 93.833 56.3945 96.2166 52.9199 96.2166Z" fill="#8D8D8D"/>
<path d="M10.8691 83.2658C10.8691 83.1864 10.78 83.1069 10.6018 83.1069H8.28543H8.19634H8.10725H8.01816H5.70179C5.6127 83.1069 5.52361 83.1864 5.43452 83.2658L0.356339 98.1234C0.267248 98.2823 0.445429 98.4412 0.623611 98.4412H3.91998C4.00907 98.4412 4.09816 98.3617 4.18725 98.2823L5.6127 93.9124C5.6127 93.833 5.70179 93.7535 5.87997 93.7535H10.4236C10.5127 93.7535 10.6018 93.833 10.6909 93.9124L12.0272 98.2823C12.0272 98.3617 12.1163 98.4412 12.2945 98.4412H15.5909C15.7691 98.4412 15.8582 98.2823 15.8582 98.1234L10.8691 83.2658ZM6.32543 90.9727L8.01816 85.8083C8.10725 85.5699 8.46361 85.5699 8.46361 85.8083L10.1563 90.9727C10.2454 91.1316 10.0672 91.2905 9.88906 91.2905H6.5927C6.41452 91.2905 6.23634 91.1316 6.32543 90.9727Z" fill="#8D8D8D"/>
<path d="M38.9327 95.6602C38.8436 95.5808 38.7545 95.5013 38.6654 95.5808C35.1909 96.9315 30.8254 95.1835 30.8254 90.9726C30.8254 86.7616 35.1018 85.0137 38.6654 86.3643C38.7545 86.4438 38.9327 86.3643 38.9327 86.2849L40.269 84.2986C40.3581 84.2191 40.269 84.0602 40.18 83.9808C39.5563 83.663 38.6654 83.3452 37.5072 83.1068C33.2309 82.3123 26.9945 84.378 26.9945 90.8931C26.9945 97.4082 33.2309 99.4739 37.5072 98.6794C38.6654 98.441 39.5563 98.1232 40.18 97.8054C40.269 97.726 40.3581 97.5671 40.269 97.4876L38.9327 95.6602Z" fill="#8D8D8D"/>
<path d="M97.5545 74.1291V67.2962C97.5545 67.2168 97.5545 67.2168 97.4654 67.1373L49.3563 24.2332L49 23.8359L0.534524 67.0579C0.445433 67.1373 0.445435 67.1373 0.445435 67.2168V74.0496C0.445435 74.288 0.712707 74.3674 0.890889 74.2085L23.9654 53.6305C24.0545 53.551 24.0545 53.551 24.1436 53.551H30.5582C30.7363 53.551 30.8254 53.6305 30.8254 53.7894V69.2825V74.6058H36.7945H61.4727H67.4418V69.2825V53.7894C67.4418 53.6305 67.5309 53.551 67.7091 53.551H74.1236C74.2127 53.551 74.2127 53.551 74.3018 53.6305L97.3764 74.2085C97.2873 74.4469 97.5545 74.3675 97.5545 74.1291ZM67.2636 48.3866H61.5618C61.3836 48.3866 61.2945 48.4661 61.2945 48.625V53.7099V69.1236C61.2945 69.2825 61.2054 69.362 61.0273 69.362H36.8836C36.7054 69.362 36.6163 69.2825 36.6163 69.1236V53.6305V48.5455C36.6163 48.3866 36.5273 48.3072 36.3491 48.3072H30.6473H29.8454L48.7327 31.4633C48.8218 31.3839 49 31.3839 49.0891 31.4633L67.9764 48.3072H67.2636V48.3866Z" fill="#8D8D8D"/>
<path d="M90.4711 113.753C90.4711 114.232 90.3404 114.65 90.0791 115.004C89.8179 115.358 89.4363 115.631 88.9345 115.823C88.4369 116.015 87.8314 116.111 87.1181 116.111C86.8029 116.111 86.494 116.093 86.1912 116.056C85.8926 116.019 85.6044 115.965 85.3265 115.895C85.0528 115.821 84.7916 115.731 84.5427 115.624V114.029C84.974 114.199 85.4219 114.352 85.8864 114.489C86.3509 114.626 86.8112 114.694 87.2674 114.694C87.5826 114.694 87.8355 114.657 88.0263 114.583C88.2212 114.509 88.3622 114.408 88.4493 114.279C88.5364 114.149 88.58 114.002 88.58 113.836C88.58 113.633 88.5032 113.459 88.3498 113.315C88.1964 113.171 87.9848 113.037 87.7153 112.911C87.4499 112.786 87.1492 112.651 86.8133 112.507C86.6018 112.418 86.3716 112.311 86.1228 112.186C85.874 112.057 85.6376 111.9 85.4136 111.715C85.1897 111.531 85.0051 111.307 84.86 111.045C84.719 110.78 84.6485 110.462 84.6485 110.093C84.6485 109.61 84.7729 109.196 85.0217 108.853C85.2705 108.51 85.6251 108.248 86.0855 108.067C86.5499 107.882 87.0974 107.79 87.7277 107.79C88.2005 107.79 88.6505 107.84 89.0776 107.94C89.5089 108.035 89.9589 108.176 90.4275 108.36L89.8054 109.695C89.3866 109.543 89.0113 109.427 88.6795 109.346C88.3477 109.261 88.0097 109.218 87.6655 109.218C87.425 109.218 87.2197 109.253 87.0497 109.324C86.8796 109.39 86.7511 109.486 86.664 109.611C86.5769 109.733 86.5333 109.875 86.5333 110.038C86.5333 110.23 86.5956 110.392 86.72 110.525C86.8485 110.654 87.0393 110.78 87.2923 110.901C87.5494 111.023 87.8687 111.165 88.2503 111.328C88.7147 111.523 89.1108 111.728 89.4384 111.942C89.7702 112.153 90.0252 112.402 90.2036 112.69C90.3819 112.974 90.4711 113.328 90.4711 113.753Z" fill="#8D8D8D"/>
<path d="M78.2934 109.218C77.9243 109.218 77.5967 109.283 77.3105 109.412C77.0285 109.538 76.7901 109.72 76.5952 109.96C76.4044 110.2 76.2592 110.49 76.1597 110.829C76.0602 111.169 76.0104 111.551 76.0104 111.975C76.0104 112.548 76.0892 113.037 76.2468 113.443C76.4085 113.845 76.6574 114.153 76.9933 114.367C77.3292 114.578 77.7626 114.683 78.2934 114.683C78.6625 114.683 79.0316 114.646 79.4007 114.572C79.7739 114.498 80.1783 114.393 80.6137 114.256V115.696C80.2115 115.844 79.8154 115.949 79.4256 116.011C79.0357 116.078 78.5982 116.111 78.113 116.111C77.1758 116.111 76.4044 115.939 75.7989 115.596C75.1976 115.249 74.7517 114.766 74.4615 114.146C74.1712 113.522 74.026 112.795 74.026 111.964C74.026 111.352 74.1193 110.791 74.3059 110.281C74.4926 109.772 74.7663 109.331 75.1271 108.958C75.4879 108.585 75.9337 108.298 76.4645 108.095C76.9953 107.892 77.605 107.79 78.2934 107.79C78.7454 107.79 79.1975 107.842 79.6495 107.945C80.1057 108.045 80.5412 108.183 80.9559 108.36L80.3338 109.755C79.9937 109.611 79.6516 109.486 79.3074 109.379C78.9632 109.272 78.6252 109.218 78.2934 109.218Z" fill="#8D8D8D"/>
<path d="M67.6648 116V107.906H69.5932V116H67.6648Z" fill="#8D8D8D"/>
<path d="M61.2475 116H59.3191V109.335H56.8495V107.906H63.7171V109.335H61.2475V116Z" fill="#8D8D8D"/>
<path d="M53.5426 113.753C53.5426 114.232 53.412 114.65 53.1507 115.004C52.8894 115.358 52.5079 115.631 52.0061 115.823C51.5084 116.015 50.9029 116.111 50.1896 116.111C49.8744 116.111 49.5655 116.093 49.2627 116.056C48.9642 116.019 48.6759 115.965 48.3981 115.895C48.1244 115.821 47.8631 115.731 47.6143 115.624V114.029C48.0456 114.199 48.4935 114.352 48.9579 114.489C49.4224 114.626 49.8827 114.694 50.3389 114.694C50.6541 114.694 50.9071 114.657 51.0979 114.583C51.2928 114.509 51.4338 114.408 51.5209 114.279C51.6079 114.149 51.6515 114.002 51.6515 113.836C51.6515 113.633 51.5748 113.459 51.4213 113.315C51.2679 113.171 51.0564 113.037 50.7868 112.911C50.5214 112.786 50.2207 112.651 49.8848 112.507C49.6733 112.418 49.4431 112.311 49.1943 112.186C48.9455 112.057 48.7091 111.9 48.4852 111.715C48.2612 111.531 48.0767 111.307 47.9315 111.045C47.7905 110.78 47.72 110.462 47.72 110.093C47.72 109.61 47.8444 109.196 48.0933 108.853C48.3421 108.51 48.6967 108.248 49.157 108.067C49.6215 107.882 50.1689 107.79 50.7993 107.79C51.272 107.79 51.722 107.84 52.1491 107.94C52.5805 108.035 53.0304 108.176 53.499 108.36L52.877 109.695C52.4581 109.543 52.0828 109.427 51.751 109.346C51.4193 109.261 51.0813 109.218 50.7371 109.218C50.4965 109.218 50.2912 109.253 50.1212 109.324C49.9512 109.39 49.8226 109.486 49.7355 109.611C49.6484 109.733 49.6049 109.875 49.6049 110.038C49.6049 110.23 49.6671 110.392 49.7915 110.525C49.9201 110.654 50.1108 110.78 50.3638 110.901C50.6209 111.023 50.9403 111.165 51.3218 111.328C51.7863 111.523 52.1823 111.728 52.51 111.942C52.8417 112.153 53.0968 112.402 53.2751 112.69C53.4534 112.974 53.5426 113.328 53.5426 113.753Z" fill="#8D8D8D"/>
<path d="M41.4084 116V107.906H43.3369V116H41.4084Z" fill="#8D8D8D"/>
<path d="M33.0814 111.455H36.6895V115.652C36.2125 115.792 35.7169 115.904 35.2027 115.989C34.6885 116.071 34.1058 116.111 33.4547 116.111C32.5506 116.111 31.7834 115.952 31.153 115.635C30.5227 115.318 30.0437 114.849 29.716 114.229C29.3884 113.609 29.2246 112.847 29.2246 111.942C29.2246 111.093 29.4071 110.359 29.772 109.739C30.1411 109.119 30.6782 108.639 31.3832 108.299C32.0924 107.96 32.957 107.79 33.9772 107.79C34.4583 107.79 34.9331 107.836 35.4018 107.928C35.8704 108.021 36.2955 108.141 36.677 108.288L36.0363 109.661C35.7584 109.536 35.4412 109.431 35.0845 109.346C34.7279 109.261 34.3546 109.218 33.9648 109.218C33.4049 109.218 32.9176 109.333 32.5029 109.562C32.0924 109.79 31.773 110.112 31.5449 110.525C31.321 110.935 31.209 111.418 31.209 111.975C31.209 112.503 31.2899 112.972 31.4516 113.382C31.6134 113.788 31.8684 114.107 32.2168 114.339C32.5651 114.568 33.0192 114.683 33.5791 114.683C33.8528 114.683 34.083 114.672 34.2696 114.65C34.4604 114.624 34.6387 114.598 34.8046 114.572V112.883H33.0814V111.455Z" fill="#8D8D8D"/>
<path d="M25.1961 111.942C25.1961 112.566 25.109 113.134 24.9348 113.647C24.7606 114.157 24.4952 114.596 24.1386 114.965C23.7861 115.334 23.3382 115.618 22.7949 115.818C22.2516 116.013 21.6088 116.111 20.8665 116.111C20.1241 116.111 19.4813 116.013 18.9381 115.818C18.3948 115.618 17.9448 115.334 17.5882 114.965C17.2357 114.596 16.9723 114.155 16.7981 113.642C16.624 113.129 16.5369 112.558 16.5369 111.931C16.5369 111.093 16.6903 110.364 16.9972 109.744C17.3082 109.12 17.7852 108.637 18.428 108.294C19.0708 107.95 19.8878 107.779 20.8789 107.779C21.8659 107.779 22.6767 107.95 23.3112 108.294C23.9499 108.637 24.4226 109.12 24.7295 109.744C25.0406 110.368 25.1961 111.101 25.1961 111.942ZM18.5586 111.942C18.5586 112.507 18.6374 112.994 18.795 113.404C18.9567 113.81 19.2076 114.123 19.5477 114.345C19.8878 114.563 20.3273 114.672 20.8665 114.672C21.4139 114.672 21.8576 114.563 22.1977 114.345C22.5378 114.123 22.7845 113.81 22.938 113.404C23.0956 112.994 23.1744 112.507 23.1744 111.942C23.1744 111.093 22.996 110.425 22.6394 109.938C22.2827 109.451 21.6959 109.207 20.8789 109.207C20.3356 109.207 19.8919 109.318 19.5477 109.539C19.2076 109.757 18.9567 110.071 18.795 110.481C18.6374 110.887 18.5586 111.374 18.5586 111.942Z" fill="#8D8D8D"/>
<path d="M7.18958 116V107.906H9.11799V114.583H12.8069V116H7.18958Z" fill="#8D8D8D"/>
</g>
<defs>
<clipPath id="clip0_284_5042">
<rect width="98" height="116" fill="white"/>
</clipPath>
</defs>
</svg>
