<svg width="98" height="130" viewBox="0 0 98 130" fill="none" xmlns="http://www.w3.org/2000/svg">
<path d="M89.0909 26.4746H67.0526C66.9588 26.4746 66.7713 26.3797 66.7713 26.1899V9.39428V3.89063C66.7713 3.79574 66.6775 3.60596 66.4899 3.60596H31.9789C31.8851 3.60596 31.6976 3.70085 31.6976 3.89063V26.1899C31.6976 26.2848 31.6038 26.4746 31.4162 26.4746H9.37796C9.28418 26.4746 9.09662 26.5695 9.09662 26.7592V61.2994C9.09662 61.4892 9.37796 61.679 9.56552 61.4892L14.7234 56.2702C14.7234 56.2702 14.8172 56.1753 14.8172 56.0804V32.5476C14.8172 32.4527 14.911 32.2629 15.0985 32.2629H31.6976H37.1368C37.2306 32.2629 37.4181 32.168 37.4181 31.9782V26.4746V9.67895C37.4181 9.58406 37.5119 9.39428 37.6995 9.39428H60.8631C60.9569 9.39428 61.1445 9.48917 61.1445 9.67895V26.4746V31.9782C61.1445 32.0731 61.2382 32.2629 61.4258 32.2629H66.865H83.4641C83.5579 32.2629 83.7454 32.3578 83.7454 32.5476V56.0804C83.7454 56.1753 83.7454 56.1753 83.8392 56.2702L88.9971 61.4892C89.1847 61.679 89.466 61.4892 89.466 61.2994V26.7592C89.2784 26.5695 89.1847 26.4746 89.0909 26.4746Z" fill="#7C948E"/>
<path d="M24.5703 94.2266C24.5703 94.1317 24.4765 93.9419 24.289 93.9419H20.9129V110.263C20.9129 110.358 21.0067 110.548 21.1942 110.548H24.3828C24.4765 110.548 24.6641 110.453 24.6641 110.263V94.2266H24.5703Z" fill="#7C948E"/>
<path d="M75.9617 103.905C75.8679 103.811 75.9617 103.621 76.1492 103.526C80.088 102.482 80.3693 97.7375 77.8373 95.3653C76.4306 94.1317 74.6487 93.9419 72.6794 93.9419H65.5521C65.4583 93.9419 65.2708 94.0368 65.2708 94.2266V110.358C65.2708 110.453 65.3645 110.643 65.5521 110.643H68.8344C68.9282 110.643 69.1157 110.548 69.1157 110.358V96.6937C69.1157 96.5988 69.2095 96.409 69.3971 96.409H72.5856C74.1798 96.409 75.4928 97.2631 75.7741 98.4966C76.0554 99.8251 75.4928 102.102 71.6478 102.292C71.4602 102.292 71.3664 102.482 71.4602 102.672L75.9617 110.453C75.9617 110.548 76.0554 110.548 76.1492 110.548H79.5253C79.7129 110.548 79.8066 110.358 79.7129 110.168L75.9617 103.905Z" fill="#7C948E"/>
<path d="M86.7464 107.701V103.621C86.7464 103.526 86.8402 103.336 87.0277 103.336H94.5301C94.6239 103.336 94.8115 103.241 94.8115 103.051V100.869C94.8115 100.774 94.7177 100.584 94.5301 100.584H87.0277C86.934 100.584 86.7464 100.489 86.7464 100.3V96.6937C86.7464 96.5988 86.8402 96.4091 87.0277 96.4091H95.5617C95.6555 96.4091 95.8431 96.3142 95.8431 96.1244V93.9419C95.8431 93.847 95.7493 93.6572 95.5617 93.6572H83.3703C83.2766 93.6572 83.089 93.7521 83.089 93.9419V110.073C83.089 110.168 83.1828 110.358 83.3703 110.358H95.5617C95.6555 110.358 95.8431 110.263 95.8431 110.073V107.986C95.8431 107.891 95.7493 107.701 95.5617 107.701H87.0277C86.8402 107.986 86.7464 107.891 86.7464 107.701Z" fill="#7C948E"/>
<path d="M44.2641 102.482C44.3579 114.059 61.5196 114.059 61.6134 102.482C61.6134 90.8107 44.3579 90.9056 44.2641 102.482ZM52.9856 108.176C49.6096 108.176 47.9215 105.614 47.9215 102.482C47.9215 99.3509 49.7033 96.7888 52.9856 96.7888C56.2679 96.7888 57.956 99.3509 57.956 102.482C57.956 105.519 56.3617 108.176 52.9856 108.176Z" fill="#7C948E"/>
<path d="M12.754 94.1317C12.754 94.0368 12.6603 93.9419 12.5665 93.9419H10.3158H10.222H10.1282H10.0344H7.7837C7.68992 93.9419 7.59614 94.0368 7.59614 94.1317L2.71959 110.263C2.62581 110.453 2.81337 110.548 2.90715 110.548H6.09567C6.18945 110.548 6.28323 110.453 6.37701 110.358L7.68992 105.613C7.68992 105.519 7.7837 105.424 7.97126 105.424H12.3789C12.4727 105.424 12.5665 105.519 12.6603 105.613L13.9732 110.358C13.9732 110.453 14.067 110.548 14.2545 110.548H17.3493C17.5368 110.548 17.6306 110.358 17.5368 110.263L12.754 94.1317ZM8.34638 102.482L9.94064 96.8835C10.0344 96.5988 10.3158 96.5988 10.4095 96.8835L12.0038 102.482C12.0038 102.672 11.91 102.767 11.7225 102.767H8.53394C8.44016 102.862 8.2526 102.672 8.34638 102.482Z" fill="#7C948E"/>
<path d="M39.5751 107.511C39.4813 107.416 39.3876 107.416 39.2938 107.416C35.9177 108.84 31.7914 107.037 31.7914 102.387C31.7914 97.7376 35.9177 95.9347 39.2938 97.358C39.3876 97.358 39.4813 97.358 39.5751 97.2631L40.888 95.1755C40.9818 95.0806 40.888 94.8909 40.7943 94.796C40.2316 94.4164 39.3876 94.1317 38.2622 93.8471C34.1359 92.9931 28.134 95.2704 28.134 102.292C28.134 109.409 34.1359 111.592 38.2622 110.738C39.3876 110.548 40.2316 110.168 40.7943 109.789C40.888 109.694 40.9818 109.599 40.888 109.409L39.5751 107.511Z" fill="#7C948E"/>
<path d="M95.7493 84.168V76.7665C95.7493 76.6717 95.7493 76.6716 95.6555 76.5768L49.6096 29.9855L49.2344 29.606L2.81338 76.5768C2.81338 76.5768 2.7196 76.6717 2.7196 76.7665V84.168C2.7196 84.3578 3.00094 84.4527 3.09472 84.3578L25.133 62.0585C25.133 62.0585 25.2268 61.9636 25.3206 61.9636H31.4163C31.51 61.9636 31.6976 62.0585 31.6976 62.2483V79.0439V84.8322H37.4182H61.0507H66.7713V79.0439V62.2483C66.7713 62.1534 66.8651 61.9636 67.0526 61.9636H73.1483C73.2421 61.9636 73.2421 61.9636 73.3359 62.0585L95.4679 84.4527C95.5617 84.5476 95.7493 84.3578 95.7493 84.168ZM66.6775 56.1753H61.2383C61.1445 56.1753 60.9569 56.2702 60.9569 56.46V61.9636V78.7592C60.9569 78.8541 60.8631 79.0439 60.6756 79.0439H37.6995C37.6057 79.0439 37.4182 78.949 37.4182 78.7592V61.9636V56.46C37.4182 56.3651 37.3244 56.1753 37.1368 56.1753H31.6976H30.9474L49.0469 37.8614C49.1406 37.7665 49.3282 37.7665 49.422 37.8614L67.5215 56.1753H66.6775Z" fill="#7C948E"/>
<path d="M4.22005 125.635H7.59613V126.869H2.81335V120.037H4.22005V125.635Z" fill="#7C948E"/>
<path d="M11.7224 126.964H10.3157V120.132H11.7224V126.964Z" fill="#7C948E"/>
<path d="M16.3176 126.964H14.9109V120.132H19.6937V121.365H16.3176V122.884H19.3186V124.117H16.3176V126.964Z" fill="#7C948E"/>
<path d="M27.5712 121.271H24.0076V122.694H27.2899V123.927H24.0076V125.73H27.7588V126.964H22.6009V120.132H27.5712V121.271Z" fill="#7C948E"/>
<path d="M36.2928 124.781C36.2928 125.161 36.4803 125.92 37.6995 125.92C38.3559 125.92 39.1062 125.73 39.1062 125.066C39.1062 124.497 38.6373 124.402 37.887 124.212L37.1368 124.022C36.0114 123.738 34.9799 123.548 34.9799 122.029C34.9799 121.27 35.355 119.942 37.6057 119.942C39.6689 119.942 40.2315 121.365 40.2315 122.124H38.8248C38.8248 121.84 38.6373 121.081 37.4181 121.081C36.8555 121.081 36.199 121.27 36.199 121.935C36.199 122.504 36.6679 122.599 36.9492 122.694L38.6373 123.073C39.5751 123.263 40.4191 123.643 40.4191 124.876C40.4191 126.964 38.3559 127.154 37.6995 127.154C35.2612 127.154 34.7923 125.73 34.7923 124.876L36.2928 124.781Z" fill="#7C948E"/>
<path d="M47.8277 122.314C47.7339 121.935 47.4526 121.175 46.3272 121.175C45.6708 121.175 44.6392 121.65 44.6392 123.548C44.6392 124.781 45.1081 125.92 46.3272 125.92C47.0775 125.92 47.6401 125.446 47.8277 124.592H49.2344C48.9531 126.11 48.0153 127.154 46.3272 127.154C44.5454 127.154 43.2325 125.92 43.2325 123.548C43.2325 121.175 44.6392 119.942 46.3272 119.942C48.3904 119.942 49.1406 121.365 49.2344 122.409H47.8277V122.314Z" fill="#7C948E"/>
<path d="M53.5483 126.964H52.1416V120.132H53.5483V126.964Z" fill="#7C948E"/>
<path d="M61.7072 121.271H58.1435V122.694H61.4258V123.927H58.1435V125.73H61.8947V126.964H56.7368V120.132H61.7072V121.271Z" fill="#7C948E"/>
<path d="M69.1157 120.037H70.4286V126.869H69.0219L66.2085 121.934V126.869H64.8956V120.037H66.3961L69.1157 124.781V120.037Z" fill="#7C948E"/>
<path d="M78.0248 122.314C77.9311 121.935 77.6497 121.175 76.5244 121.175C75.8679 121.175 74.8363 121.65 74.8363 123.548C74.8363 124.781 75.3052 125.92 76.5244 125.92C77.2746 125.92 77.8373 125.446 78.0248 124.592H79.4315C79.1502 126.11 78.2124 127.154 76.5244 127.154C74.7425 127.154 73.4296 125.92 73.4296 123.548C73.4296 121.175 74.8363 119.942 76.5244 119.942C78.5875 119.942 79.3378 121.365 79.4315 122.409H78.0248V122.314Z" fill="#7C948E"/>
<path d="M87.4028 121.271H83.8392V122.694H87.1215V123.927H83.8392V125.73H87.5904V126.964H82.4325V120.132H87.4028V121.271Z" fill="#7C948E"/>
<path d="M91.5291 124.781C91.5291 125.161 91.7167 125.92 92.9358 125.92C93.5923 125.92 94.3425 125.73 94.3425 125.066C94.3425 124.497 93.8736 124.402 93.1234 124.212L92.3731 124.022C91.2478 123.738 90.2162 123.548 90.2162 122.029C90.2162 121.27 90.5913 119.942 92.842 119.942C94.9052 119.942 95.4679 121.365 95.4679 122.124H94.2487C94.2487 121.84 94.0612 121.081 92.842 121.081C92.2793 121.081 91.6229 121.27 91.6229 121.935C91.6229 122.504 92.0918 122.599 92.3731 122.694L94.0612 123.073C94.999 123.263 95.843 123.643 95.843 124.876C95.843 126.964 93.7798 127.154 93.1234 127.154C90.6851 127.154 90.2162 125.73 90.2162 124.876L91.5291 124.781Z" fill="#7C948E"/>
</svg>
