<svg width="61" height="61" viewBox="0 0 61 61" fill="none" xmlns="http://www.w3.org/2000/svg">
<g id="Frame 1618872939">
<rect x="0.5" y="0.5" width="60" height="60" rx="15" fill="#3265A8"/>
<g id="Group">
<path id="Vector" d="M41.3859 17.3437C39.403 14.3057 36.0743 12.5 32.4316 12.5C28.5043 12.5 24.9531 14.6034 23.0643 18.018C22.0299 17.57 20.9309 17.3432 19.7912 17.3432C15.2194 17.3432 11.5 21.064 11.5 25.6374C11.5 29.2819 13.9392 32.5502 17.4316 33.5853C17.6621 33.6537 17.9053 33.5217 17.9735 33.2909C18.0419 33.0601 17.9104 32.8173 17.6794 32.7489C14.5544 31.8227 12.3721 28.8983 12.3721 25.6374C12.3721 21.5449 15.7003 18.2153 19.7912 18.2153C20.9385 18.2153 22.0393 18.4719 23.0632 18.9784C23.2782 19.0846 23.5383 18.998 23.6459 18.7836C25.3279 15.4458 28.6944 13.3722 32.4316 13.3722C35.8543 13.3722 38.9751 15.108 40.7796 18.0151C40.8692 18.1593 41.036 18.2374 41.2024 18.2181C41.2336 18.2145 41.2614 18.2156 41.2926 18.2153C45.3835 18.2153 48.7118 21.545 48.7118 25.6374C48.7118 28.9029 46.5247 31.8282 43.3932 32.7518C43.1623 32.82 43.0303 33.0624 43.0983 33.2932C43.1544 33.4831 43.3281 33.6061 43.5165 33.6061C43.5572 33.6061 43.5988 33.6004 43.64 33.5882C47.1397 32.5562 49.5839 29.2868 49.5839 25.6374C49.5839 21.0952 45.9148 17.3939 41.3859 17.3437Z" fill="white"/>
<path id="Vector_2" d="M39.0397 27.6918C34.365 23.0141 26.7366 22.9967 22.0415 27.6918C19.771 29.9593 18.5209 32.9799 18.5209 36.1894C18.5209 39.4018 19.771 42.4195 22.0415 44.69C26.7075 49.356 34.336 49.3967 39.0397 44.69C41.3132 42.4195 42.5632 39.4018 42.5632 36.1894C42.5633 32.9799 41.3132 29.9622 39.0397 27.6918ZM30.9782 25.0578C33.5481 25.1567 36.0919 26.1422 38.1066 28.0057L36.7198 29.3953C35.1326 27.9475 33.1207 27.1161 30.9782 27.0143V25.0578ZM30.106 25.0578V27.0144C27.9605 27.1161 25.9488 27.9476 24.3614 29.3954L22.9747 28.0058C24.9894 26.1423 27.5332 25.1567 30.106 25.0578ZM30.106 47.3239C27.5331 47.2222 24.9894 46.2395 22.9747 44.3731L24.3614 42.9864C25.9952 44.472 28.0361 45.2627 30.106 45.3615V47.3239ZM30.9782 47.3239V45.3615C33.0452 45.2626 35.0889 44.4719 36.7198 42.9864L38.1094 44.3731C36.0919 46.2395 33.5481 47.2222 30.9782 47.3239ZM36.4204 42.0677C33.1789 45.3092 27.9053 45.3092 24.6638 42.0677C21.4223 38.8262 21.4223 33.5526 24.6638 30.3111C26.2336 28.7413 28.3211 27.8779 30.5421 27.8779C31.6526 27.8779 32.7283 28.093 33.7255 28.5058C34.7226 28.9187 35.6355 29.5262 36.4204 30.3112C39.6619 33.5527 39.6619 38.8262 36.4204 42.0677Z" fill="white"/>
<path id="Vector_3" d="M33.9377 35.4713L30.9258 29.7994C30.8503 29.6569 30.702 29.5669 30.5421 29.5669C30.3793 29.5669 30.2339 29.6541 30.1554 29.7966L27.1465 35.4132C27.0447 35.6021 27.1028 35.855 27.2831 35.9771L30.2078 37.986C30.2804 38.0355 30.3676 38.0616 30.452 38.0616C30.5334 38.0616 30.6147 38.0383 30.6845 37.9947L33.7836 36.044C33.9754 35.9219 34.0394 35.6632 33.9377 35.4713ZM30.5392 30.9303L32.3998 34.4334L30.6845 33.3549C30.6147 33.3113 30.5334 33.288 30.452 33.288C30.3705 33.288 30.2892 33.3113 30.2165 33.3578L28.7164 34.3288L30.5392 30.9303ZM30.4636 37.1051L28.3182 35.6282L30.4578 34.2415L32.7342 35.6747L30.4636 37.1051Z" fill="white"/>
<path id="Vector_4" d="M33.8679 37.3262C33.7312 37.1809 33.5103 37.1488 33.3359 37.2477L30.4607 38.8844L27.757 37.2535C27.5854 37.1488 27.3646 37.1749 27.2221 37.3174C27.0797 37.4628 27.0535 37.6838 27.161 37.8553L30.0827 42.6056C30.1613 42.7336 30.2979 42.812 30.4491 42.8149H30.4519C30.6002 42.8149 30.7368 42.7394 30.8183 42.6173L33.9173 37.8641C34.0278 37.6954 34.0074 37.4744 33.8679 37.3262ZM30.4636 41.562L28.8414 38.9252L30.2282 39.7624C30.3648 39.8438 30.5335 39.8467 30.67 39.7682L32.205 38.8931L30.4636 41.562Z" fill="white"/>
</g>
</g>
</svg>
