<svg width="61" height="61" viewBox="0 0 61 61" fill="none" xmlns="http://www.w3.org/2000/svg">
<g id="Frame 1618872938">
<rect x="0.5" y="0.5" width="60" height="60" rx="15" fill="#00ADEE"/>
<path id="Vector" fill-rule="evenodd" clip-rule="evenodd" d="M17.8522 28.2784V37.3557C17.852 37.4154 17.8285 37.4727 17.7867 37.5149C17.745 37.5572 17.6885 37.581 17.6295 37.5812H14.1225C14.0634 37.581 14.0069 37.5572 13.9652 37.5149C13.9235 37.4727 13.8999 37.4154 13.8998 37.3557V28.2784H12.7232C12.679 28.2785 12.6359 28.2654 12.5992 28.2406C12.5624 28.2158 12.5338 28.1805 12.5169 28.1393C12.5001 28.098 12.4957 28.0526 12.5043 28.0088C12.513 27.965 12.5343 27.9248 12.5656 27.8932L15.7184 24.7013C15.7602 24.6591 15.8169 24.6354 15.876 24.6354C15.935 24.6354 15.9917 24.6591 16.0336 24.7013L19.1864 27.8932C19.2177 27.9248 19.239 27.965 19.2477 28.0088C19.2563 28.0526 19.2519 28.098 19.2351 28.1393C19.2182 28.1805 19.1896 28.2158 19.1528 28.2406C19.1161 28.2654 19.073 28.2785 19.0288 28.2784H17.8522ZM28.2761 44.7476C28.2266 44.7004 28.1867 44.6438 28.1587 44.5809C28.1308 44.5181 28.1153 44.4503 28.1132 44.3814C28.1111 44.3126 28.1225 44.2439 28.1466 44.1795C28.1707 44.115 28.2072 44.056 28.2538 44.0059C28.3004 43.9557 28.3564 43.9153 28.4185 43.887C28.4805 43.8587 28.5475 43.843 28.6155 43.8409C28.6836 43.8388 28.7513 43.8503 28.815 43.8747C28.8787 43.8991 28.9369 43.936 28.9865 43.9832C29.1275 44.1177 29.2056 44.1991 29.4058 44.1991C29.5826 44.1991 29.8119 44.0933 29.8119 43.8883C29.8119 43.6832 29.5826 43.5775 29.4058 43.5775C28.6549 43.5775 27.9605 43.0052 27.9605 42.2146C27.9605 41.6292 28.3492 41.1437 28.879 40.9463L28.8772 40.8742C28.874 40.7353 28.9255 40.6007 29.0202 40.5001C29.115 40.3995 29.2454 40.3412 29.3826 40.3379C29.5199 40.3347 29.6528 40.3867 29.7522 40.4827C29.8515 40.5786 29.9091 40.7106 29.9124 40.8496L29.9148 40.9518C30.1918 41.0482 30.497 41.2267 30.6593 41.4768C30.7335 41.5929 30.7594 41.734 30.7312 41.8693C30.7031 42.0046 30.6232 42.1231 30.5091 42.1991C30.395 42.275 30.2558 42.3022 30.122 42.2746C29.9881 42.2471 29.8705 42.1672 29.7946 42.0522C29.7624 42.0025 29.5864 41.9039 29.4058 41.9019C29.2324 41.9019 28.9976 42.0118 28.9976 42.2147C28.9976 42.4198 29.2289 42.5255 29.4058 42.5255C30.1578 42.5255 30.8511 43.0987 30.8511 43.8883C30.8511 44.4725 30.4617 44.9593 29.9334 45.1564L29.9343 45.1979C29.9376 45.3369 29.8862 45.4715 29.7914 45.572C29.6966 45.6726 29.5663 45.731 29.429 45.7343C29.2917 45.7375 29.1588 45.6855 29.0594 45.5895C28.9601 45.4936 28.9025 45.3616 28.8992 45.2227L28.8979 45.1669C28.6637 45.0732 28.4518 44.9303 28.2761 44.7476ZM29.4062 38.8298C28.5845 38.8298 27.7812 39.0765 27.0979 39.5387C26.4147 40.0009 25.8821 40.6578 25.5677 41.4264C25.2532 42.195 25.1709 43.0407 25.3312 43.8567C25.4915 44.6726 25.8872 45.4221 26.4683 46.0103C27.0494 46.5986 27.7897 46.9992 28.5956 47.1615C29.4016 47.3238 30.237 47.2405 30.9962 46.9221C31.7554 46.6038 32.4043 46.0647 32.8608 45.3729C33.3174 44.6812 33.561 43.868 33.561 43.0361C33.561 41.9205 33.1232 40.8507 32.3441 40.0618C31.5649 39.273 30.5081 38.8299 29.4062 38.8298ZM29.4062 39.8819C28.79 39.8819 28.1876 40.0669 27.6753 40.4135C27.1629 40.76 26.7636 41.2527 26.5278 41.829C26.2919 42.4054 26.2302 43.0396 26.3505 43.6514C26.4707 44.2633 26.7674 44.8253 27.2031 45.2664C27.6389 45.7075 28.194 46.0079 28.7984 46.1297C29.4027 46.2514 30.0292 46.1889 30.5985 45.9502C31.1678 45.7114 31.6544 45.3071 31.9967 44.7884C32.3391 44.2697 32.5218 43.6599 32.5218 43.0361C32.5218 42.6219 32.4413 42.2117 32.2847 41.829C32.1281 41.4463 31.8986 41.0986 31.6093 40.8057C31.32 40.5128 30.9765 40.2805 30.5985 40.1219C30.2205 39.9634 29.8154 39.8819 29.4062 39.8819ZM34.0057 27.3433V23.4878C34.0029 23.0848 33.8428 22.6992 33.5604 22.4153C33.2779 22.1313 32.896 21.9719 32.4979 21.9719C32.0998 21.9719 31.7179 22.1313 31.4354 22.4153C31.1529 22.6992 30.9928 23.0848 30.99 23.4878V26.2196C31.4862 26.4422 31.8994 26.8192 32.1694 27.2958C32.4395 27.7724 32.5524 28.3238 32.4918 28.8698C32.8923 28.8701 33.2767 28.7096 33.5606 28.4234C33.8444 28.1373 34.0043 27.7488 34.0057 27.3433ZM29.9611 31.156H27.0488C27.9817 31.9392 28.4208 32.9874 28.4028 34.2197C28.4021 34.2886 28.3881 34.3567 28.3614 34.4201C28.3347 34.4835 28.2959 34.541 28.2473 34.5892C28.1986 34.6374 28.1411 34.6754 28.0779 34.7011C28.0147 34.7267 27.9472 34.7395 27.8791 34.7387C27.811 34.7379 27.7438 34.7235 27.6812 34.6963C27.6187 34.6692 27.562 34.6298 27.5145 34.5805C27.467 34.5311 27.4296 34.4727 27.4044 34.4087C27.3792 34.3447 27.3667 34.2763 27.3677 34.2074C27.3923 32.5228 26.2995 31.6152 24.8102 31.1447C24.6845 31.1179 24.573 31.0449 24.4973 30.9398C24.4216 30.8346 24.3871 30.7048 24.4004 30.5753C24.4138 30.4459 24.474 30.3261 24.5695 30.2391C24.6651 30.152 24.7891 30.1038 24.9176 30.1039H29.9611C30.361 30.1039 30.7446 29.9431 31.0273 29.6568C31.3101 29.3706 31.469 28.9823 31.469 28.5775C31.469 28.1726 31.3101 27.7843 31.0273 27.4981C30.7446 27.2118 30.361 27.051 29.9611 27.051H22.4955C22.0959 27.0524 21.713 27.2136 21.4302 27.4995C21.1474 27.7854 20.9876 28.1728 20.9857 28.5774L20.9861 33.6729C20.9733 35.4405 22.0543 36.2048 23.5344 36.7373C23.6492 36.7638 23.7517 36.829 23.8252 36.9222C23.8986 37.0154 23.9386 37.1311 23.9386 37.2503V49.5H34.8577V37.6385C34.8577 37.499 34.9124 37.3652 35.0098 37.2665C35.1073 37.1679 35.2395 37.1125 35.3773 37.1125C36.7595 37.1125 38.039 36.1215 38.039 34.7497C38.039 33.3841 38.0538 32.0198 38.058 30.6546C37.7305 30.8988 37.3499 31.0598 36.9481 31.1242C36.5464 31.1887 36.1352 31.1546 35.7491 31.0249C35.3631 30.8952 35.0134 30.6737 34.7294 30.3789C34.4454 30.0841 34.2353 29.7246 34.1169 29.3307C33.8459 29.5588 33.5307 29.727 33.1915 29.8243C32.8524 29.9217 32.4969 29.946 32.1479 29.8958C31.9221 30.2793 31.6019 30.597 31.2186 30.8179C30.8353 31.0388 30.4022 31.1553 29.9611 31.156ZM22.8804 25.9988H25.896V21.0196C25.896 20.6148 25.7371 20.2265 25.4544 19.9402C25.1716 19.6539 24.7881 19.4931 24.3882 19.4931C23.9883 19.4931 23.6048 19.6539 23.322 19.9402C23.0392 20.2265 22.8804 20.6148 22.8804 21.0196V25.9988ZM26.9352 25.9988H29.9508V22.2537C29.9508 21.8488 29.792 21.4606 29.5092 21.1743C29.2264 20.888 28.8429 20.7272 28.443 20.7272C28.0431 20.7272 27.6596 20.888 27.3768 21.1743C27.0941 21.4606 26.9352 21.8488 26.9352 22.2537V25.9988ZM36.5528 23.1954C36.9522 23.197 37.3348 23.3583 37.6172 23.6442C37.8997 23.9301 38.059 24.3175 38.0606 24.7218V28.5774C38.0606 28.9822 37.9017 29.3705 37.6189 29.6568C37.3362 29.943 36.9527 30.1039 36.5528 30.1039C36.1529 30.1039 35.7693 29.943 35.4866 29.6568C35.2038 29.3705 35.0449 28.9822 35.0449 28.5774V24.7218C35.0465 24.3175 35.2058 23.9301 35.4883 23.6442C35.7707 23.3583 36.1533 23.197 36.5528 23.1954ZM41.8933 17.596C41.9908 17.4974 42.1229 17.4419 42.2607 17.4419C42.3986 17.4419 42.5307 17.4974 42.6282 17.596C42.7256 17.6947 42.7804 17.8285 42.7804 17.968C42.7804 18.1075 42.7256 18.2413 42.6282 18.34L40.0048 20.9956C39.9074 21.0942 39.7752 21.1496 39.6374 21.1496C39.4996 21.1496 39.3674 21.0942 39.27 20.9956C39.1725 20.8969 39.1178 20.7631 39.1178 20.6236C39.1178 20.484 39.1725 20.3502 39.27 20.2516L41.8933 17.596ZM16.6992 19.0214C16.6509 18.9726 16.6126 18.9146 16.5865 18.8507C16.5604 18.7869 16.547 18.7185 16.547 18.6494C16.547 18.5803 16.5604 18.5119 16.5865 18.4481C16.6126 18.3843 16.6509 18.3263 16.6992 18.2774C16.7474 18.2286 16.8047 18.1899 16.8677 18.1634C16.9308 18.137 16.9984 18.1234 17.0666 18.1234C17.1348 18.1234 17.2024 18.137 17.2655 18.1634C17.3285 18.1899 17.3858 18.2286 17.434 18.2774L20.0573 20.9332C20.1547 21.0318 20.2095 21.1656 20.2095 21.3052C20.2095 21.4447 20.1547 21.5785 20.0573 21.6771C19.9598 21.7758 19.8277 21.8312 19.6898 21.8312C19.552 21.8312 19.4199 21.7758 19.3224 21.6771L16.6992 19.0214ZM29.0046 13.026C29.0046 12.8865 29.0594 12.7527 29.1568 12.6541C29.2543 12.5554 29.3864 12.5 29.5242 12.5C29.662 12.5 29.7942 12.5554 29.8916 12.6541C29.9891 12.7527 30.0438 12.8865 30.0438 13.026V16.782C30.0438 16.9215 29.9891 17.0553 29.8916 17.154C29.7942 17.2526 29.662 17.308 29.5242 17.308C29.3864 17.308 29.2543 17.2526 29.1568 17.154C29.0594 17.0553 29.0046 16.9215 29.0046 16.782V13.026ZM46.1003 28.2784V37.3557C46.1001 37.4154 46.0766 37.4727 46.0349 37.5149C45.9932 37.5572 45.9366 37.581 45.8776 37.5812H42.371C42.312 37.581 42.2555 37.5572 42.2138 37.5149C42.1721 37.4727 42.1485 37.4154 42.1484 37.3557V28.2784H40.9711C40.927 28.2785 40.8838 28.2654 40.8471 28.2406C40.8104 28.2158 40.7818 28.1805 40.7649 28.1393C40.748 28.098 40.7436 28.0526 40.7523 28.0088C40.7609 27.965 40.7822 27.9248 40.8135 27.8932L43.9664 24.7013C44.0082 24.6591 44.0649 24.6354 44.124 24.6354C44.183 24.6354 44.2397 24.6591 44.2816 24.7013L47.4344 27.8932C47.4657 27.9248 47.487 27.965 47.4957 28.0088C47.5043 28.0526 47.4999 28.098 47.4831 28.1393C47.4662 28.1805 47.4376 28.2158 47.4008 28.2406C47.3641 28.2654 47.321 28.2785 47.2768 28.2784H46.1003Z" fill="white"/>
</g>
</svg>
