<svg width="61" height="61" viewBox="0 0 61 61" fill="none" xmlns="http://www.w3.org/2000/svg">
<rect x="0.5" y="0.5" width="60" height="60" rx="15" fill="#34A3CD"/>
<g clip-path="url(#clip0_0_311)">
<path d="M23.168 25.1992C23.5237 25.1992 23.8125 24.9104 23.8125 24.5547C23.8125 24.1989 23.5237 23.9102 23.168 23.9102C22.8122 23.9102 22.5234 24.1989 22.5234 24.5547C22.5234 24.9104 22.8122 25.1992 23.168 25.1992Z" fill="white"/>
<path d="M25.948 24.4776C25.6207 24.3379 25.2421 24.4895 25.1021 24.8168C24.9621 25.1441 25.1136 25.5227 25.4409 25.663C27.584 26.5799 28.9688 28.6749 28.9688 31C28.9688 34.1985 26.3665 36.8008 23.168 36.8008C19.9695 36.8008 17.3672 34.1985 17.3672 31C17.3672 28.6749 18.7519 26.5799 20.895 25.663C21.2223 25.5227 21.3739 25.1441 21.2339 24.8168C21.0939 24.4895 20.7147 24.3377 20.3879 24.4776C17.7698 25.598 16.0781 28.158 16.0781 31C16.0781 34.9092 19.2587 38.0898 23.168 38.0898C27.0772 38.0898 30.2578 34.9092 30.2578 31C30.2578 28.158 28.5662 25.598 25.948 24.4776Z" fill="white"/>
<path d="M23.2324 31.5986C23.5879 31.5986 23.8769 31.8879 23.8769 32.2432C23.8769 32.5987 23.5879 32.8877 23.2324 32.8877C22.957 32.8877 22.6599 32.7145 22.3955 32.4003C22.1664 32.1276 21.7598 32.0926 21.4874 32.3217C21.215 32.5506 21.1797 32.9572 21.4088 33.2296C21.7533 33.6395 22.1586 33.9252 22.5879 34.069V34.8213C22.5879 35.1773 22.8764 35.4658 23.2324 35.4658C23.5884 35.4658 23.8769 35.1773 23.8769 34.8213V34.066C24.6272 33.7999 25.166 33.0836 25.166 32.2432C25.166 31.1769 24.2987 30.3096 23.2324 30.3096C22.8769 30.3096 22.5879 30.0205 22.5879 29.665C22.5879 29.3098 22.8769 29.0205 23.2324 29.0205C23.4608 29.0205 23.7017 29.1371 23.9296 29.3574C24.1854 29.6051 24.5932 29.5983 24.841 29.3425C25.0885 29.0867 25.0817 28.6786 24.8259 28.4311C24.4988 28.1146 24.1715 27.9354 23.8769 27.8377V27.0869C23.8769 26.7309 23.5884 26.4424 23.2324 26.4424C22.8764 26.4424 22.5879 26.7309 22.5879 27.0869V27.8425C21.8376 28.1083 21.2988 28.8249 21.2988 29.665C21.2988 30.7313 22.1662 31.5986 23.2324 31.5986Z" fill="white"/>
<path d="M40.6992 26.1016C43.8977 26.1016 46.5 23.4993 46.5 20.3008C46.5 17.1023 43.8977 14.5 40.6992 14.5C37.5007 14.5 34.8984 17.1023 34.8984 20.3008C34.8984 21.1581 35.0875 21.999 35.4483 22.7666L31.0466 25.4032C29.2243 22.8462 26.3002 21.332 23.168 21.332C17.837 21.332 13.5 25.669 13.5 31C13.5 36.331 17.837 40.668 23.168 40.668C26.2952 40.668 29.2215 39.1579 31.0466 36.5968L35.4483 39.2334C35.0875 40.001 34.8984 40.8419 34.8984 41.6992C34.8984 44.8977 37.5007 47.5 40.6992 47.5C43.8977 47.5 46.5 44.8977 46.5 41.6992C46.5 38.5007 43.8977 35.8984 40.6992 35.8984C38.886 35.8984 37.2177 36.7242 36.1228 38.1347L31.7234 35.4996C32.4527 34.1174 32.8359 32.5748 32.8359 31C32.8359 29.4252 32.4527 27.8826 31.7234 26.5004L36.1228 23.8653C37.2177 25.2758 38.886 26.1016 40.6992 26.1016ZM40.6992 15.7891C43.187 15.7891 45.2109 17.813 45.2109 20.3008C45.2109 22.7885 43.187 24.8125 40.6992 24.8125C38.1526 24.8125 36.1875 22.744 36.1875 20.3008C36.1875 17.813 38.2115 15.7891 40.6992 15.7891ZM23.168 39.3789C18.5477 39.3789 14.7891 35.6202 14.7891 31C14.7891 26.3798 18.5477 22.6211 23.168 22.6211C26.0925 22.6211 28.7595 24.1123 30.3024 26.6106C31.1166 27.9277 31.5469 29.4456 31.5469 31C31.5469 32.5544 31.1166 34.0723 30.3024 35.3894V35.3896C28.7595 37.8877 26.0925 39.3789 23.168 39.3789ZM40.6992 37.1875C43.187 37.1875 45.2109 39.2115 45.2109 41.6992C45.2109 44.187 43.187 46.2109 40.6992 46.2109C38.2115 46.2109 36.1875 44.187 36.1875 41.6992C36.1875 39.2515 38.1571 37.1875 40.6992 37.1875Z" fill="white"/>
</g>
<defs>
<clipPath id="clip0_0_311">
<rect width="33" height="33" fill="white" transform="translate(13.5 14.5)"/>
</clipPath>
</defs>
</svg>
