<svg width="61" height="61" viewBox="0 0 61 61" fill="none" xmlns="http://www.w3.org/2000/svg">
<rect x="0.5" y="0.5" width="60" height="60" rx="15" fill="#259BC8"/>
<path fill-rule="evenodd" clip-rule="evenodd" d="M28.9466 46.0065C28.5376 45.9666 28.1334 45.9109 27.7343 45.8402C27.5647 45.8101 27.4025 45.9233 27.3725 46.0929C27.3424 46.2625 27.4557 46.4246 27.6252 46.4547C28.0402 46.5284 28.4607 46.5863 28.8861 46.6278C29.0574 46.6444 29.2103 46.5189 29.2269 46.3473C29.2437 46.1759 29.118 46.0231 28.9466 46.0065ZM33.832 45.718C33.4359 45.805 33.0341 45.8769 32.6275 45.9331C32.4569 45.9566 32.3374 46.1142 32.361 46.2848C32.3846 46.4555 32.5422 46.5749 32.7129 46.5514C33.136 46.4929 33.5538 46.4182 33.9658 46.3277C34.134 46.2907 34.2407 46.1241 34.2037 45.9559C34.1668 45.7876 34.0002 45.6811 33.832 45.718ZM26.5389 45.5789C26.1424 45.4757 25.7518 45.3572 25.3682 45.2242C25.2053 45.1678 25.0275 45.2541 24.971 45.4168C24.9145 45.5797 25.001 45.7577 25.1637 45.814C25.5629 45.9524 25.9692 46.0757 26.3818 46.1831C26.5485 46.2264 26.719 46.1263 26.7625 45.9596C26.8058 45.7929 26.7057 45.6224 26.5389 45.5789ZM36.1712 45.0068C35.793 45.1553 35.4076 45.2895 35.0157 45.4086C34.8509 45.4588 34.7577 45.6332 34.8079 45.7981C34.8579 45.9629 35.0324 46.0559 35.1972 46.0059C35.605 45.8819 36.0059 45.7422 36.3993 45.5878C36.5598 45.5248 36.6387 45.3434 36.5758 45.1831C36.5129 45.0228 36.3315 44.9437 36.1712 45.0068ZM24.2288 44.7782C23.8542 44.6141 23.487 44.4357 23.1282 44.2437C22.9764 44.1625 22.787 44.2198 22.7058 44.3716C22.6245 44.5235 22.6819 44.7129 22.8336 44.7941C23.2068 44.9938 23.5887 45.1794 23.9785 45.35C24.1363 45.4191 24.3205 45.347 24.3896 45.1893C24.4586 45.0315 24.3867 44.8472 24.2288 44.7782ZM38.3697 43.9364C38.0188 44.1428 37.6592 44.3359 37.2915 44.515C37.1365 44.5903 37.0721 44.7773 37.1475 44.9322C37.2228 45.0869 37.4098 45.1515 37.5647 45.0762C37.9472 44.8899 38.3213 44.6892 38.6862 44.4745C38.8347 44.3872 38.8843 44.1957 38.7969 44.0472C38.7096 43.8988 38.5181 43.849 38.3697 43.9364ZM22.0729 43.6245C21.7288 43.4041 21.3939 43.1705 21.069 42.9246C20.9316 42.8206 20.7357 42.8477 20.6317 42.9851C20.5279 43.1225 20.5548 43.3184 20.6922 43.4222C21.0302 43.6781 21.3783 43.921 21.7361 44.15C21.8811 44.2431 22.0744 44.2007 22.1673 44.0556C22.2601 43.9106 22.2179 43.7174 22.0729 43.6245ZM40.3743 42.5355C40.0594 42.7944 39.7342 43.0413 39.3993 43.2753C39.2582 43.3738 39.2236 43.5686 39.3223 43.7099C39.421 43.851 39.6158 43.8854 39.7569 43.7869C40.1051 43.5436 40.4432 43.2869 40.7707 43.0177C40.9037 42.9084 40.9229 42.7115 40.8136 42.5785C40.7042 42.4453 40.5073 42.4261 40.3743 42.5355ZM18.4145 40.3743C18.1556 40.0594 17.9088 39.7341 17.6748 39.3993C17.5761 39.2582 17.3813 39.2236 17.2402 39.3223C17.0991 39.421 17.0645 39.6158 17.1632 39.7569C17.4065 40.1051 17.6631 40.4432 17.9324 40.7707C18.0417 40.9037 18.2386 40.9229 18.3716 40.8135C18.5046 40.7042 18.524 40.5073 18.4145 40.3743ZM43.6245 38.8772C43.4041 39.2213 43.1706 39.5562 42.9246 39.8811C42.8206 40.0185 42.8477 40.2143 42.9851 40.3183C43.1225 40.4222 43.3184 40.3951 43.4222 40.2577C43.6781 39.9199 43.921 39.5717 44.15 39.214C44.2431 39.069 44.2007 38.8757 44.0557 38.7828C43.9106 38.6899 43.7174 38.7322 43.6245 38.8772ZM17.0136 38.3696C16.8073 38.0188 16.6142 37.6592 16.4351 37.2914C16.3598 37.1365 16.1728 37.0721 16.0179 37.1475C15.863 37.2228 15.7986 37.4098 15.8739 37.5647C16.0601 37.9472 16.2609 38.3213 16.4756 38.6862C16.5629 38.8347 16.7544 38.8843 16.9028 38.7969C17.0513 38.7096 17.1009 38.5181 17.0136 38.3696ZM44.7782 36.7211C44.6142 37.0959 44.4357 37.4631 44.2437 37.8218C44.1625 37.9737 44.2198 38.1631 44.3716 38.2442C44.5235 38.3256 44.7129 38.2682 44.7941 38.1163C44.9938 37.7431 45.1794 37.3614 45.35 36.9714C45.4191 36.8137 45.347 36.6296 45.1893 36.5605C45.0315 36.4913 44.8473 36.5634 44.7782 36.7211ZM15.9433 36.1711C15.7948 35.793 15.6606 35.4075 15.5413 35.0156C15.4913 34.8508 15.3168 34.7577 15.152 34.8078C14.9872 34.8579 14.894 35.0324 14.9442 35.1972C15.0681 35.605 15.2077 36.0059 15.3623 36.3993C15.4252 36.5598 15.6065 36.6387 15.767 36.5758C15.9273 36.5129 16.0062 36.3314 15.9433 36.1711ZM45.5789 34.411C45.4757 34.8077 45.3572 35.1981 45.2242 35.5819C45.1679 35.7446 45.2542 35.9226 45.4169 35.9791C45.5797 36.0354 45.7577 35.9491 45.814 35.7864C45.9524 35.3872 46.0757 34.9809 46.1831 34.5683C46.2264 34.4016 46.1264 34.2309 45.9596 34.1876C45.7929 34.1442 45.6224 34.2443 45.5789 34.411ZM15.232 33.832C15.1451 33.4359 15.0732 33.0341 15.017 32.6275C14.9935 32.4568 14.8357 32.3374 14.6651 32.361C14.4945 32.3846 14.3751 32.5422 14.3987 32.7129C14.4571 33.1359 14.5319 33.5538 14.6224 33.9657C14.6592 34.134 14.8258 34.2407 14.9941 34.2037C15.1623 34.1668 15.269 34.0002 15.232 33.832ZM46.0065 32.0035C45.9667 32.4123 45.9109 32.8167 45.8402 33.2158C45.8101 33.3854 45.9234 33.5475 46.093 33.5776C46.2625 33.6077 46.4246 33.4944 46.4548 33.3249C46.5285 32.9097 46.5863 32.4893 46.6278 32.064C46.6444 31.8926 46.5189 31.7398 46.3473 31.7231C46.176 31.7064 46.0231 31.8321 46.0065 32.0035ZM14.9436 28.9466C14.9834 28.5376 15.039 28.1334 15.1099 27.7343C15.14 27.5647 15.0267 27.4025 14.8571 27.3725C14.6876 27.3424 14.5255 27.4556 14.4954 27.6252C14.4216 28.0402 14.3637 28.4607 14.3223 28.886C14.3055 29.0574 14.4312 29.2102 14.6026 29.2269C14.7742 29.2437 14.9268 29.118 14.9436 28.9466ZM45.718 27.1181C45.805 27.5142 45.8769 27.9159 45.9331 28.3226C45.9566 28.4932 46.1142 28.6126 46.2849 28.589C46.4555 28.5654 46.5749 28.4078 46.5514 28.2372C46.493 27.8141 46.4182 27.3963 46.3277 26.9842C46.2907 26.8159 46.1241 26.7094 45.9559 26.7463C45.7876 26.7833 45.6811 26.9499 45.718 27.1181ZM15.371 26.5389C15.4744 26.1424 15.5927 25.7518 15.7258 25.3681C15.7822 25.2053 15.696 25.0275 15.5331 24.971C15.3704 24.9145 15.1924 25.001 15.136 25.1637C14.9977 25.5629 14.8744 25.9692 14.767 26.3818C14.7237 26.5485 14.8237 26.719 14.9905 26.7625C15.1571 26.8057 15.3277 26.7057 15.371 26.5389ZM45.0068 24.7789C45.1553 25.1571 45.2895 25.5425 45.4086 25.9344C45.4588 26.0992 45.6332 26.1923 45.7981 26.1422C45.9629 26.092 46.056 25.9177 46.0059 25.7529C45.8819 25.3451 45.7422 24.9442 45.5878 24.5506C45.5249 24.3903 45.3434 24.3112 45.1831 24.3743C45.0228 24.4372 44.9437 24.6185 45.0068 24.7789ZM16.1719 24.2288C16.336 23.8541 16.5144 23.4869 16.7063 23.1281C16.7876 22.9764 16.7303 22.787 16.5783 22.7058C16.4266 22.6245 16.2372 22.6819 16.156 22.8336C15.9563 23.2068 15.7707 23.5887 15.6001 23.9785C15.531 24.1362 15.6029 24.3205 15.7608 24.3896C15.9186 24.4586 16.1028 24.3867 16.1719 24.2288ZM43.9364 22.5803C44.1428 22.9311 44.336 23.2908 44.515 23.6585C44.5903 23.8134 44.7773 23.878 44.9322 23.8026C45.087 23.7271 45.1515 23.5401 45.0762 23.3854C44.89 23.0029 44.6892 22.6288 44.4745 22.2639C44.3872 22.1154 44.1957 22.0657 44.0473 22.153C43.8988 22.2404 43.8491 22.4318 43.9364 22.5803ZM17.3256 22.0729C17.546 21.7287 17.7795 21.3939 18.0254 21.069C18.1294 20.9316 18.1022 20.7356 17.965 20.6317C17.8276 20.5278 17.6317 20.5548 17.5277 20.6922C17.272 21.0302 17.0291 21.3783 16.7999 21.7361C16.707 21.8811 16.7493 22.0744 16.8945 22.1672C17.0395 22.2601 17.2326 22.2179 17.3256 22.0729ZM42.5355 20.5758C42.7944 20.8907 43.0413 21.2159 43.2753 21.5506C43.3739 21.6919 43.5686 21.7263 43.7099 21.6278C43.851 21.529 43.8855 21.3343 43.7869 21.193C43.5436 20.845 43.287 20.5067 43.0177 20.1794C42.9084 20.0463 42.7115 20.027 42.5785 20.1364C42.4453 20.2459 42.4261 20.4428 42.5355 20.5758ZM20.5758 18.4144C20.8907 18.1556 21.216 17.9088 21.5506 17.6748C21.6919 17.5761 21.7264 17.3813 21.6278 17.2402C21.5291 17.0991 21.3343 17.0645 21.193 17.1632C20.845 17.4065 20.5067 17.6631 20.1794 17.9323C20.0464 18.0417 20.027 18.2386 20.1364 18.3716C20.2459 18.5046 20.4428 18.524 20.5758 18.4144ZM38.8772 17.3256C39.2213 17.546 39.5562 17.7795 39.8811 18.0254C40.0185 18.1293 40.2143 18.1022 40.3183 17.965C40.4222 17.8276 40.3951 17.6317 40.2577 17.5277C39.9199 17.272 39.5718 17.0291 39.214 16.7999C39.069 16.707 38.8757 16.7493 38.7828 16.8944C38.69 17.0395 38.7322 17.2326 38.8772 17.3256ZM22.5803 17.0135C22.9312 16.8072 23.2909 16.6141 23.6585 16.4351C23.8134 16.3598 23.878 16.1728 23.8026 16.0179C23.7271 15.863 23.5401 15.7986 23.3854 15.8739C23.0029 16.0601 22.6288 16.2609 22.2639 16.4756C22.1154 16.5629 22.0657 16.7544 22.153 16.9028C22.2404 17.0513 22.4318 17.1009 22.5803 17.0135ZM36.7211 16.1719C37.096 16.3359 37.4631 16.5144 37.8218 16.7063C37.9737 16.7876 38.1631 16.7302 38.2443 16.5783C38.3256 16.4266 38.2682 16.2372 38.1163 16.156C37.7431 15.9563 37.3614 15.7707 36.9715 15.6001C36.8137 15.531 36.6296 15.6029 36.5605 15.7608C36.4913 15.9186 36.5634 16.1028 36.7211 16.1719ZM24.7789 15.9433C25.1571 15.7948 25.5425 15.6606 25.9345 15.5413C26.0992 15.4913 26.1923 15.3168 26.1422 15.152C26.0921 14.9872 25.9177 14.894 25.7529 14.9442C25.3451 15.0681 24.9442 15.2077 24.5506 15.3623C24.3903 15.4252 24.3112 15.6065 24.3743 15.7669C24.4372 15.9272 24.6185 16.0062 24.7789 15.9433ZM34.411 15.371C34.8077 15.4744 35.1981 15.5927 35.5819 15.7257C35.7446 15.7822 35.9226 15.6959 35.9791 15.5331C36.0354 15.3704 35.9491 15.1924 35.7864 15.1359C35.3872 14.9977 34.9809 14.8744 34.5683 14.7669C34.4016 14.7237 34.2309 14.8237 34.1876 14.9905C34.1442 15.1571 34.2443 15.3277 34.411 15.371ZM27.1181 15.232C27.5142 15.1451 27.9159 15.0732 28.3226 15.017C28.4933 14.9935 28.6127 14.8357 28.589 14.6651C28.5655 14.4944 28.4079 14.375 28.2372 14.3987C27.8142 14.4571 27.3963 14.5319 26.9842 14.6224C26.816 14.6592 26.7094 14.8258 26.7463 14.9941C26.7833 15.1623 26.9499 15.269 27.1181 15.232ZM32.0035 14.9436C32.4124 14.9834 32.8167 15.039 33.2158 15.1099C33.3854 15.14 33.5475 15.0267 33.5776 14.8571C33.6077 14.6875 33.4945 14.5254 33.3249 14.4953C32.9097 14.4216 32.4894 14.3637 32.064 14.3223C31.8927 14.3055 31.7398 14.4312 31.7231 14.6026C31.7064 14.7741 31.8321 14.9268 32.0035 14.9436Z" fill="white"/>
<path fill-rule="evenodd" clip-rule="evenodd" d="M29.3084 35.5802V35.6629C29.3084 36.3068 29.8311 36.8297 30.475 36.8297C31.119 36.8297 31.6417 36.3068 31.6417 35.6629V35.5426C32.8258 35.0617 33.6616 33.8996 33.6616 32.5437C33.6616 31.6833 33.4834 30.9209 33.0359 30.3566C32.5722 29.7717 31.8029 29.3085 30.4263 29.3085C30.1205 29.3085 29.9011 29.298 29.764 29.1828C29.6885 29.1194 29.6612 29.0291 29.6441 28.9299C29.6169 28.7711 29.6218 28.5913 29.6218 28.4064C29.6218 27.9086 30.026 27.5046 30.5237 27.5046C30.9261 27.5046 31.2673 27.7684 31.3834 28.1326C31.5791 28.7461 32.236 29.0852 32.8495 28.8896C33.463 28.6939 33.8022 28.037 33.6065 27.4235C33.3034 26.4734 32.5731 25.7134 31.6417 25.37V25.2872C31.6417 24.6433 31.119 24.1206 30.475 24.1206C29.8311 24.1206 29.3084 24.6433 29.3084 25.2872L29.3085 25.4075C28.1243 25.8885 27.2883 27.0506 27.2883 28.4064C27.2883 29.4733 27.5647 30.3823 28.2622 30.9687C28.7229 31.3561 29.3984 31.6418 30.4263 31.6418C30.6555 31.6418 30.8428 31.6527 30.992 31.6905C31.0852 31.7142 31.159 31.7452 31.2074 31.806C31.2675 31.882 31.2924 31.9759 31.3076 32.0778C31.3292 32.222 31.3283 32.3802 31.3283 32.5437C31.3283 33.0415 30.9241 33.4457 30.4263 33.4457C30.024 33.4457 29.6828 33.1817 29.5667 32.8177C29.371 32.2042 28.7141 31.865 28.1006 32.0607C27.4871 32.2563 27.1478 32.9133 27.3436 33.5267C27.6465 34.4769 28.377 35.2369 29.3084 35.5802Z" fill="white"/>
<path fill-rule="evenodd" clip-rule="evenodd" d="M30.475 18.3027C23.7569 18.3027 18.3027 23.757 18.3027 30.475C18.3027 37.1931 23.7569 42.6473 30.475 42.6473C37.193 42.6473 42.6473 37.1931 42.6473 30.475C42.6473 23.757 37.193 18.3027 30.475 18.3027ZM30.475 21.4317C35.4663 21.4317 39.5184 25.4839 39.5184 30.475C39.5184 35.4663 35.4663 39.5185 30.475 39.5185C25.4838 39.5185 21.4317 35.4663 21.4317 30.475C21.4317 25.4839 25.4838 21.4317 30.475 21.4317Z" fill="white"/>
<path fill-rule="evenodd" clip-rule="evenodd" d="M30.475 48.2653C31.5085 48.2653 32.3476 47.4262 32.3476 46.3927C32.3476 45.3591 31.5085 44.52 30.475 44.52C29.4414 44.52 28.6023 45.3591 28.6023 46.3927C28.6023 47.4262 29.4414 48.2653 30.475 48.2653ZM17.8954 43.0547C18.6263 43.7856 19.813 43.7856 20.5437 43.0547C21.2745 42.3239 21.2745 41.1372 20.5437 40.4065C19.813 39.6755 18.6263 39.6755 17.8954 40.4065C17.1646 41.1372 17.1646 42.3239 17.8954 43.0547ZM43.0546 43.0547C43.7855 42.3239 43.7855 41.1372 43.0546 40.4065C42.3238 39.6755 41.1371 39.6755 40.4064 40.4065C39.6754 41.1372 39.6754 42.3239 40.4064 43.0547C41.1371 43.7856 42.3238 43.7856 43.0546 43.0547ZM48.2652 30.4751C48.2652 29.4415 47.4261 28.6024 46.3926 28.6024C45.359 28.6024 44.5199 29.4415 44.5199 30.4751C44.5199 31.5086 45.359 32.3477 46.3926 32.3477C47.4261 32.3477 48.2652 31.5086 48.2652 30.4751ZM12.6847 30.4751C12.6847 31.5086 13.5238 32.3477 14.5574 32.3477C15.5909 32.3477 16.43 31.5086 16.43 30.4751C16.43 29.4415 15.5909 28.6024 14.5574 28.6024C13.5238 28.6024 12.6847 29.4415 12.6847 30.4751ZM43.0546 17.8955C42.3238 17.1647 41.1371 17.1647 40.4064 17.8955C39.6754 18.6264 39.6754 19.8131 40.4064 20.5438C41.1371 21.2746 42.3238 21.2746 43.0546 20.5438C43.7855 19.8131 43.7855 18.6264 43.0546 17.8956V17.8955ZM17.8954 17.8956C17.1646 18.6264 17.1646 19.8131 17.8954 20.5438C18.6263 21.2746 19.813 21.2746 20.5437 20.5438C21.2745 19.8131 21.2745 18.6264 20.5437 17.8955C19.813 17.1647 18.6263 17.1647 17.8955 17.8955L17.8954 17.8956ZM30.475 12.6848C29.4414 12.6848 28.6023 13.5239 28.6023 14.5575C28.6023 15.591 29.4414 16.4301 30.475 16.4301C31.5085 16.4301 32.3476 15.591 32.3476 14.5575C32.3476 13.5239 31.5085 12.6848 30.475 12.6848Z" fill="white"/>
</svg>
