<svg width="48" height="38" viewBox="0 0 48 38" fill="none" xmlns="http://www.w3.org/2000/svg">
<g id="8666257_discord_icon 1">
<path id="Vector" d="M39.0203 5.18318C39.0083 5.15968 38.9884 5.14126 38.9641 5.13123C36.1645 3.83304 33.21 2.90734 30.1747 2.37727C30.1471 2.37209 30.1186 2.37583 30.0933 2.38795C30.0679 2.40008 30.047 2.41997 30.0335 2.44481C29.6312 3.18276 29.266 3.94075 28.9393 4.7159C25.6674 4.21395 22.3393 4.21395 19.0674 4.7159C18.7385 3.93879 18.3674 3.1806 17.9559 2.44481C17.9418 2.42051 17.9207 2.40108 17.8955 2.38903C17.8703 2.37698 17.8421 2.37289 17.8146 2.37727C14.779 2.90622 11.8243 3.832 9.025 5.13131C9.00104 5.14157 8.98082 5.1591 8.96713 5.18148C3.36906 13.6304 1.83554 21.8716 2.58784 30.0107C2.58995 30.0306 2.59602 30.05 2.60567 30.0675C2.61532 30.085 2.62836 30.1004 2.64402 30.1127C5.90372 32.552 9.54974 34.4139 13.4265 35.619C13.4538 35.6272 13.4829 35.6269 13.51 35.6179C13.5371 35.6089 13.5608 35.5918 13.578 35.5688C14.4106 34.4238 15.1484 33.2114 15.7838 31.9438C15.7926 31.9264 15.7975 31.9073 15.7984 31.8878C15.7994 31.8684 15.7962 31.8489 15.7891 31.8308C15.782 31.8126 15.7712 31.7962 15.7574 31.7826C15.7436 31.7689 15.7271 31.7584 15.709 31.7517C14.5456 31.3018 13.4192 30.7595 12.3406 30.1298C12.321 30.1182 12.3045 30.1018 12.2926 30.0822C12.2808 30.0626 12.2739 30.0404 12.2725 30.0175C12.2712 29.9945 12.2754 29.9716 12.2849 29.9508C12.2944 29.9299 12.3089 29.9117 12.327 29.8978C12.5533 29.7264 12.7798 29.5482 12.9959 29.3681C13.0151 29.3521 13.0383 29.3419 13.063 29.3385C13.0877 29.3352 13.1127 29.3388 13.1354 29.3491C20.2023 32.6086 27.8531 32.6086 34.8362 29.3491C34.859 29.3382 34.8843 29.334 34.9094 29.3371C34.9344 29.3401 34.958 29.3503 34.9775 29.3664C35.1937 29.5465 35.4201 29.7264 35.6481 29.8978C35.6663 29.9116 35.6809 29.9296 35.6906 29.9504C35.7002 29.9712 35.7046 29.9941 35.7035 30.017C35.7023 30.04 35.6955 30.0622 35.6838 30.0819C35.6721 30.1016 35.6558 30.118 35.6362 30.1298C34.56 30.7648 33.4327 31.3068 32.2662 31.75C32.2481 31.757 32.2316 31.7677 32.2179 31.7816C32.2042 31.7954 32.1935 31.812 32.1866 31.8303C32.1797 31.8486 32.1766 31.8682 32.1777 31.8877C32.1788 31.9073 32.1839 31.9264 32.1928 31.9438C32.8388 33.2043 33.5755 34.4152 34.3969 35.5668C34.4136 35.5904 34.4372 35.6081 34.4644 35.6175C34.4916 35.6268 34.521 35.6272 34.5484 35.6187C38.4321 34.4177 42.0845 32.5557 45.3483 30.1127C45.3642 30.101 45.3774 30.086 45.3871 30.0687C45.3968 30.0514 45.4027 30.0322 45.4045 30.0124C46.3051 20.6027 43.8966 12.4291 39.0203 5.18318ZM16.8392 25.0548C14.7116 25.0548 12.9585 23.0816 12.9585 20.6582C12.9585 18.2348 14.6776 16.2614 16.8392 16.2614C19.0177 16.2614 20.7539 18.2519 20.7198 20.658C20.7198 23.0816 19.0007 25.0548 16.8392 25.0548ZM31.1874 25.0548C29.0599 25.0548 27.3068 23.0816 27.3068 20.6582C27.3068 18.2348 29.0258 16.2614 31.1874 16.2614C33.3661 16.2614 35.1021 18.2519 35.0681 20.658C35.0681 23.0816 33.3661 25.0548 31.1874 25.0548Z" fill="#ADADAD"/>
</g>
</svg>
