<svg width="45" height="44" viewBox="0 0 45 44" fill="none" xmlns="http://www.w3.org/2000/svg">
<g id="104501_twitter_bird_icon (2) 1">
<path id="Vector" d="M41.5073 11.6921C40.1018 12.3169 38.5891 12.7383 37.002 12.9269C38.6225 11.9568 39.8651 10.4201 40.451 8.58693C38.9353 9.48644 37.2573 10.1391 35.4699 10.4915C34.0396 8.96722 32.0007 8.01416 29.7446 8.01416C25.4131 8.01416 21.9012 11.5261 21.9012 15.8583C21.9012 16.4722 21.9703 17.0706 22.1046 17.6457C15.5852 17.3182 9.80477 14.1959 5.93586 9.44996C5.26065 10.6079 4.87414 11.9552 4.87414 13.3942C4.87414 16.1152 6.25872 18.5165 8.36353 19.9228C7.07829 19.8817 5.86834 19.5285 4.8105 18.941C4.80973 18.9736 4.80973 19.007 4.80973 19.0404C4.80973 22.8402 7.51369 26.0098 11.1024 26.7316C10.4443 26.9101 9.75122 27.0063 9.03564 27.0063C8.52962 27.0063 8.03834 26.9575 7.55948 26.8651C8.55834 29.9812 11.4548 32.2497 14.8867 32.3126C12.2022 34.4166 8.82066 35.6708 5.145 35.6708C4.51248 35.6708 3.88771 35.6336 3.2738 35.5606C6.74612 37.7873 10.8688 39.0849 15.2981 39.0849C29.7267 39.0849 37.6159 27.1329 37.6159 16.7671C37.6159 16.4272 37.6089 16.088 37.5942 15.7512C39.1262 14.6476 40.4565 13.2653 41.5073 11.6921Z" fill="#ADADAD"/>
</g>
</svg>
