<svg xmlns="http://www.w3.org/2000/svg" aria-hidden="true" style="position:absolute;width:0;height:0;overflow:hidden">
  <defs>
    <symbol id="icon-soc_1" viewBox="0 0 33 32">
      <path d="M30.187 8.503a11.352 11.352 0 0 1-3.277.898 5.713 5.713 0 0 0 2.508-3.156 11.416 11.416 0 0 1-3.623 1.385 5.705 5.705 0 0 0-9.72 5.203A16.197 16.197 0 0 1 4.316 6.872a5.676 5.676 0 0 0-.772 2.869 5.701 5.701 0 0 0 2.538 4.748 5.69 5.69 0 0 1-2.584-.714l-.001.072a5.71 5.71 0 0 0 4.577 5.594 5.732 5.732 0 0 1-2.577.097 5.711 5.711 0 0 0 5.329 3.962 11.445 11.445 0 0 1-7.085 2.442c-.46 0-.914-.027-1.361-.08a16.147 16.147 0 0 0 8.745 2.563c10.494 0 16.231-8.692 16.231-16.231 0-.247-.005-.494-.016-.739a11.561 11.561 0 0 0 2.846-2.952z"/>
    </symbol>
    <symbol id="icon-soc_2" viewBox="0 0 40 32">
      <path d="M32.859 4.365a.096.096 0 0 0-.047-.044 29.769 29.769 0 0 0-7.402-2.319c-.023-.004-.047-.001-.069.009s-.039.027-.05.048c-.339.621-.646 1.26-.921 1.913a27.387 27.387 0 0 0-8.313 0 19.443 19.443 0 0 0-.936-1.913c-.012-.02-.03-.037-.051-.047s-.045-.014-.068-.01A29.686 29.686 0 0 0 7.6 4.321a.11.11 0 0 0-.049.042c-4.714 7.115-6.006 14.055-5.372 20.909.002.017.007.033.015.048s.019.028.032.038a30.041 30.041 0 0 0 9.08 4.637.118.118 0 0 0 .127-.042 21.869 21.869 0 0 0 1.858-3.053c.007-.015.012-.031.012-.047s-.002-.033-.008-.048-.015-.029-.027-.041-.026-.02-.041-.026a19.838 19.838 0 0 1-2.837-1.366.118.118 0 0 1-.057-.094.119.119 0 0 1 .045-.101c.191-.144.381-.294.563-.446.016-.013.036-.022.056-.025s.042 0 .061.009c5.951 2.745 12.394 2.745 18.274 0a.11.11 0 0 1 .119.015c.182.152.373.303.565.448.015.012.028.027.036.044a.12.12 0 0 1-.006.111.118.118 0 0 1-.04.04c-.906.535-1.856.991-2.838 1.364-.015.006-.029.015-.041.027s-.021.026-.026.041-.008.032-.008.048a.106.106 0 0 0 .013.047 24.501 24.501 0 0 0 1.856 3.051.115.115 0 0 0 .128.044 29.927 29.927 0 0 0 9.095-4.637.117.117 0 0 0 .048-.084c.758-7.924-1.27-14.807-5.376-20.909zM14.18 21.099c-1.792 0-3.268-1.662-3.268-3.702s1.448-3.703 3.268-3.703c1.835 0 3.297 1.676 3.268 3.702 0 2.041-1.448 3.703-3.268 3.703zm12.083 0c-1.792 0-3.268-1.662-3.268-3.702s1.448-3.703 3.268-3.703c1.835 0 3.297 1.676 3.268 3.702 0 2.041-1.433 3.703-3.268 3.703z"/>
    </symbol>
    <symbol id="icon-soc_3" viewBox="0 0 33 32">
      <path d="M30.674 6.139 26.336 26.6c-.327 1.444-1.181 1.803-2.394 1.123l-6.61-4.871-3.19 3.068c-.353.353-.648.648-1.329.648l.475-6.733L25.54 8.764c.533-.475-.116-.738-.828-.263L9.566 18.038l-6.521-2.041c-1.418-.443-1.444-1.418.295-2.099l25.505-9.826c1.181-.443 2.214.263 1.829 2.067z"/>
    </symbol>
  </defs>
</svg>
