<svg width="30" height="31" viewBox="0 0 30 31" fill="none" xmlns="http://www.w3.org/2000/svg">
<g id="Logo Bionorica">
<path id="Vector" d="M30 15.4993C30 23.7863 23.286 30.5 15.0002 30.5C6.71683 30.5 0 23.7863 0 15.4993C0 7.2165 6.71683 0.5 15.0002 0.5C23.286 0.5 30 7.2165 30 15.4993Z" fill="#0C4677"/>
<path id="Vector_2" d="M22 15.1243C22 18.8105 19.0691 21.751 15.3681 21.751C14.0376 21.751 11.4299 21.2284 11.7572 19.3605C11.778 19.242 11.8541 18.8664 12.0782 18.5251C12.3349 18.1356 12.9406 17.5995 14.2454 17.1703C16.1717 16.536 17.6983 17.2681 17.6983 17.2681C17.6983 17.2681 16.4687 16.2217 14.2336 16.8493C13.7827 16.9764 13.421 17.1203 13.0678 17.2853C12.7817 17.4196 12.7297 17.2262 12.7899 17.1248C13.0497 16.687 13.3028 16.2537 13.6106 15.875C13.9955 15.3998 14.9607 14.3913 16.4696 13.8142C17.5575 13.398 18.6558 13.2786 18.6558 13.2786C18.6558 13.2786 17.5751 13.2015 16.5099 13.5545C16.0689 13.7006 15.7203 13.8475 15.4251 14.0022C15.1725 14.1343 15.2327 13.9598 15.3382 13.8358C15.4066 13.7542 15.4849 13.6821 15.5582 13.6077C17.6453 11.4828 19.5449 10.4833 19.5449 10.4833C17.8255 10.8733 16.4352 11.6046 15.0326 12.8714C14.9738 12.9242 14.8543 13.0351 14.8466 12.8467C14.8389 12.6627 14.8416 12.4815 14.8162 12.2006C14.7542 11.5148 14.3939 11.0964 14.3939 11.0964C14.3939 11.0964 14.7121 11.6384 14.6401 12.4039C14.5672 13.1807 14.2924 13.5869 14.2014 13.6816C13.7881 14.1135 13.468 14.4859 13.033 15.0188C12.9977 15.0621 12.8732 15.0901 12.8732 14.9048C12.8727 14.6135 12.8446 14.1613 12.8274 13.8741C12.7288 12.233 12.07 11.6934 12.07 11.6934C12.07 11.6934 12.5603 12.4779 12.5689 13.8714C12.573 14.4616 12.487 15.0671 12.4132 15.4796C12.3571 15.7903 11.9944 16.3525 11.9609 16.3985C10.854 17.9129 10.055 19.3123 9.6987 19.9503C9.12374 20.9741 8.76474 21.6743 8.39215 22.3691C8.17258 22.7753 7.80633 22.168 8.12459 21.4827C8.63707 20.3768 9.67832 18.8475 9.16992 17.5396C8.86298 16.7488 8.71584 16.0306 8.71584 15.1243C8.71584 11.4404 11.6961 8.5 15.3002 8.5H22V15.1243Z" fill="#94C23D"/>
</g>
</svg>
