<svg width="111" height="30" viewBox="0 0 111 30" fill="none" xmlns="http://www.w3.org/2000/svg">
<g id="logo 2" clip-path="url(#clip0_1_2474)">
<g id="Group">
<path id="Vector" d="M39.9838 21.9398C38.7419 21.9398 37.3295 21.8085 36.4951 21.5264V9.29714C37.3295 9.10776 39.0185 8.95776 39.8913 8.95776C42.0636 8.95776 43.8831 9.93651 43.8831 12.2873C43.8831 13.5679 43.1579 14.565 42.047 15.0168V15.1106C43.4178 15.4687 44.3276 16.5412 44.3276 18.1401C44.3276 20.4712 42.6205 21.9398 39.9838 21.9398ZM39.8547 10.5581C39.3538 10.5581 38.6106 10.6326 38.2586 10.7085V14.4904H39.7072C41.1904 14.4904 42.047 13.7189 42.047 12.4959C42.047 11.1782 41.0443 10.5581 39.8547 10.5581ZM39.6489 16.0321H38.2586V20.1904C38.6666 20.2645 39.4283 20.3235 39.9648 20.3235C41.4328 20.3235 42.4544 19.5885 42.4544 18.1204C42.4544 16.5782 41.3578 16.0321 39.6489 16.0321Z" fill="#0C4677"/>
<path id="Vector_2" d="M46.9635 10.0687C46.3516 10.0687 45.9053 9.61635 45.9053 8.95775C45.9053 8.3376 46.3682 7.88525 46.9824 7.88525C47.5763 7.88525 48.0203 8.3376 48.0203 8.95775C48.0203 9.61635 47.5578 10.0687 46.9635 10.0687ZM46.1092 11.8743H47.8172V21.7331H46.1092V11.8743Z" fill="#0C4677"/>
<path id="Vector_3" d="M54.0583 21.9398C51.1437 21.9398 49.4551 19.7953 49.4551 16.785C49.4551 13.9078 51.3481 11.6479 54.0773 11.6479C56.9189 11.6479 58.6806 13.6819 58.6806 16.785C58.6806 19.739 56.7311 21.9398 54.0583 21.9398ZM54.0583 13.305C52.4623 13.305 51.2926 14.5453 51.2926 16.785C51.2926 18.9098 52.3332 20.2842 54.0408 20.2842C55.7298 20.2842 56.8431 18.9487 56.8431 16.785C56.8431 14.6404 55.7858 13.305 54.0583 13.305Z" fill="#0C4677"/>
<path id="Vector_4" d="M66.3679 21.7331V15.7125C66.3679 14.0006 65.5877 13.342 64.3255 13.342C63.4181 13.342 62.618 13.8122 62.1374 14.5078V21.7331H60.4095V14.6775C60.4095 13.8492 60.2805 12.7223 60.0566 12.0806L61.6731 11.6873C61.7841 11.9681 61.9312 12.6272 61.9501 12.9094C62.7674 11.9869 63.7895 11.6479 64.7168 11.6479C66.3305 11.6479 68.0944 12.3656 68.0944 15.4687V21.7331H66.3679Z" fill="#0C4677"/>
<path id="Vector_5" d="M74.2898 21.9398C71.3756 21.9398 69.6865 19.7953 69.6865 16.785C69.6865 13.9078 71.5795 11.6479 74.3088 11.6479C77.1485 11.6479 78.9125 13.6819 78.9125 16.785C78.9125 19.739 76.963 21.9398 74.2898 21.9398ZM74.2898 13.305C72.6937 13.305 71.525 14.5453 71.525 16.785C71.525 18.9098 72.5647 20.2842 74.2699 20.2842C75.9613 20.2842 77.0754 18.9487 77.0754 16.785C77.0754 14.6404 76.0172 13.305 74.2898 13.305Z" fill="#0C4677"/>
<path id="Vector_6" d="M85.2378 13.5876C85.0334 13.5483 84.755 13.5117 84.4779 13.5117C83.5848 13.5117 82.9174 13.9275 82.3597 14.8472V21.7331H80.6535V15.0539C80.6535 13.9636 80.5222 12.8531 80.2803 12.0806L81.8963 11.707C82.0438 12.0633 82.1941 12.6656 82.1941 13.192C82.7866 12.1008 83.7162 11.6479 84.7369 11.6479C84.9025 11.6479 85.2202 11.6873 85.4052 11.7436L85.2378 13.5876Z" fill="#0C4677"/>
<path id="Vector_7" d="M87.4766 10.0687C86.8647 10.0687 86.418 9.61635 86.418 8.95775C86.418 8.3376 86.8814 7.88525 87.4956 7.88525C88.0876 7.88525 88.5334 8.3376 88.5334 8.95775C88.5334 9.61635 88.0709 10.0687 87.4766 10.0687ZM86.6224 11.8743H88.3318V21.7331H86.6224V11.8743Z" fill="#0C4677"/>
<path id="Vector_8" d="M96.8204 14.4905C96.356 13.7747 95.5582 13.3622 94.6485 13.3622C92.921 13.3622 91.8448 14.6972 91.8448 16.8787C91.8448 18.9098 93.0149 20.1905 94.741 20.1905C95.7816 20.1905 96.9503 19.7391 97.5622 19.23L97.7107 21.0548C96.9679 21.6023 95.7058 21.9394 94.537 21.9394C91.7703 21.9394 90.0068 20.0034 90.0068 16.9739C90.0068 13.6814 91.9378 11.6484 94.6304 11.6484C96.0221 11.6484 97.0993 12.0633 97.8781 13.0416L96.8204 14.4905Z" fill="#0C4677"/>
<path id="Vector_9" d="M104.762 21.8264L104.463 20.4347H104.37C103.703 21.3389 102.849 21.9394 101.605 21.9394C99.7842 21.9394 98.6729 20.8303 98.6729 18.9863C98.6729 16.8417 100.119 16.148 104.241 16.148C104.279 15.7692 104.297 15.3928 104.297 15.1106C104.297 13.9078 103.572 13.2853 102.366 13.2853C101.475 13.2853 100.493 13.5291 99.7842 13.9078L99.5636 12.27C100.305 11.9133 101.475 11.6484 102.645 11.6484C104.521 11.6484 105.967 12.6464 105.967 14.8669C105.967 16.013 105.726 17.9897 105.726 18.6291L106.45 21.6394L104.762 21.8264ZM100.622 17.8205C100.435 18.1575 100.362 18.5358 100.362 18.8166C100.362 19.8145 100.824 20.4914 101.939 20.4914C103.499 20.4914 104.147 19.23 104.241 17.4441C103.109 17.4614 101.586 17.6137 100.622 17.8205Z" fill="#0C4677"/>
<path id="Vector_10" d="M29.4136 14.9077C29.4136 23.1441 22.8309 29.8167 14.707 29.8167C6.58554 29.8167 0 23.1441 0 14.9077C0 6.67547 6.58554 0 14.707 0C22.8309 0 29.4136 6.67547 29.4136 14.9077Z" fill="#0C4677"/>
<path id="Vector_11" d="M21.4587 14.9176C21.4587 18.7501 18.4645 21.8073 14.6835 21.8073C13.3242 21.8073 10.6602 21.264 10.9946 19.322C11.0159 19.1987 11.0936 18.8082 11.3225 18.4534C11.5848 18.0484 12.2036 17.4911 13.5365 17.0448C15.5045 16.3853 17.064 17.1465 17.064 17.1465C17.064 17.1465 15.8079 16.0586 13.5245 16.7111C13.0639 16.8432 12.6943 16.9928 12.3336 17.1643C12.0413 17.304 11.9881 17.1029 12.0496 16.9975C12.3151 16.5423 12.5736 16.0918 12.8881 15.6981C13.2812 15.204 14.2673 14.1554 15.8088 13.5554C16.9202 13.1228 18.0422 12.9986 18.0422 12.9986C18.0422 12.9986 16.9382 12.9184 15.85 13.2854C15.3995 13.4373 15.0434 13.5901 14.7418 13.7509C14.4837 13.8882 14.5452 13.7068 14.653 13.5779C14.7228 13.4931 14.8029 13.4181 14.8778 13.3407C17.0099 11.1315 18.9506 10.0923 18.9506 10.0923C17.194 10.4978 15.7736 11.2581 14.3408 12.5753C14.2807 12.6301 14.1586 12.7454 14.1507 12.5495C14.1429 12.3582 14.1456 12.1698 14.1197 11.8778C14.0564 11.1648 13.6882 10.7298 13.6882 10.7298C13.6882 10.7298 14.0134 11.2932 13.9398 12.0892C13.8654 12.8968 13.5846 13.3192 13.4917 13.4176C13.0694 13.8667 12.7424 14.2539 12.298 14.8079C12.2619 14.8529 12.1347 14.882 12.1347 14.6893C12.1342 14.3865 12.1056 13.9164 12.088 13.6178C11.9872 11.9115 11.3142 11.3504 11.3142 11.3504C11.3142 11.3504 11.8151 12.1661 11.8239 13.615C11.8281 14.2286 11.7402 14.8581 11.6648 15.287C11.6074 15.61 11.237 16.1945 11.2028 16.2423C10.0719 17.8168 9.25563 19.2718 8.89164 19.9351C8.30427 20.9996 7.93751 21.7276 7.55687 22.45C7.33256 22.8723 6.95839 22.2409 7.28353 21.5284C7.80708 20.3786 8.87083 18.7886 8.35144 17.4287C8.03787 16.6065 7.88756 15.8598 7.88756 14.9176C7.88756 11.0875 10.9322 8.03027 14.6142 8.03027H21.4587V14.9176Z" fill="#94C23D"/>
<path id="Vector_12" d="M111 9.65717C111 8.63342 110.242 7.88623 109.293 7.88623C108.353 7.88623 107.606 8.65404 107.606 9.65717C107.606 10.6711 108.323 11.4281 109.293 11.4281C110.282 11.4281 111 10.6814 111 9.65717ZM110.696 9.65717C110.696 10.5375 110.131 11.1515 109.303 11.1515C108.475 11.1515 107.909 10.4967 107.909 9.65717C107.909 8.78717 108.495 8.16279 109.303 8.16279C110.091 8.16279 110.696 8.78717 110.696 9.65717ZM110.03 10.4559C109.949 10.2408 109.828 10.0467 109.616 9.74951C109.798 9.66748 109.909 9.5142 109.909 9.30936C109.909 8.96154 109.677 8.77686 109.263 8.77686C109.161 8.77686 108.889 8.79748 108.737 8.81764V10.5065H109.05V9.8517H109.323C109.505 10.1283 109.626 10.3429 109.677 10.4869L110.03 10.4559ZM109.576 9.31967C109.576 9.5142 109.444 9.59623 109.252 9.59623H109.05V9.06373C109.121 9.05342 109.222 9.05342 109.273 9.05342C109.464 9.05342 109.576 9.13545 109.576 9.31967Z" fill="#0C4677"/>
</g>
</g>
<defs>
<clipPath id="clip0_1_2474">
<rect width="111" height="30" fill="white"/>
</clipPath>
</defs>
</svg>
