<!-- Generated by IcoMoon.io -->
<svg version="1.1" xmlns="http://www.w3.org/2000/svg" width="32" height="32" viewBox="0 0 32 32">
<title>arrow-up</title>
<path d="M14.981 21.621l-9.803-10.289c-0.164-0.172-0.255-0.4-0.255-0.637s0.091-0.465 0.255-0.637l0.011-0.011c0.079-0.084 0.175-0.15 0.281-0.195s0.22-0.069 0.335-0.069c0.115 0 0.229 0.023 0.335 0.069s0.201 0.112 0.281 0.195l9.231 9.689 9.227-9.689c0.079-0.084 0.175-0.15 0.281-0.195s0.22-0.069 0.335-0.069c0.115 0 0.229 0.023 0.335 0.069s0.201 0.112 0.281 0.195l0.011 0.011c0.164 0.172 0.255 0.4 0.255 0.637s-0.091 0.465-0.255 0.637l-9.803 10.289c-0.086 0.090-0.19 0.163-0.305 0.212s-0.239 0.075-0.364 0.075c-0.125 0-0.249-0.025-0.364-0.075s-0.219-0.121-0.305-0.212z"></path>
</svg>
