<!-- Generated by IcoMoon.io -->
<svg version="1.1" xmlns="http://www.w3.org/2000/svg" width="100" height="32" viewBox="0 0 100 32">
<title>Logo</title>
<path d="M91.464 18.863c0.93 0 1.677-0.238 2.243-0.714 0.586-0.493 0.97-1.048 1.152-1.665 0.182-0.634 0.273-1.357 0.273-2.167 0-2.802-1.193-4.203-3.577-4.203-0.485 0-0.94 0.070-1.364 0.211-0.384 0.159-0.707 0.326-0.97 0.502-0.263 0.211-0.505 0.449-0.728 0.714v6.503c0.404 0.194 0.788 0.361 1.152 0.502 0.465 0.211 1.071 0.317 1.819 0.317zM92.343 21.4c-1.556 0-2.839-0.379-3.85-1.137v6.82h-3.607v-16.23c0-0.441-0.131-0.723-0.394-0.846-0.243-0.123-0.647-0.203-1.213-0.238h-0.212v-2.035c0.485-0.176 1.182-0.264 2.092-0.264 1.698 0 2.668 0.67 2.91 2.009 0.121-0.159 0.253-0.317 0.394-0.476 1.010-1.022 2.365-1.533 4.062-1.533 2.243 0 3.86 0.626 4.85 1.877s1.485 2.881 1.485 4.89c0 2.044-0.545 3.753-1.637 5.128-1.071 1.357-2.697 2.035-4.88 2.035z"></path>
<path d="M58.894 21.162v-10.309c0-0.405-0.121-0.687-0.364-0.846-0.243-0.123-0.596-0.203-1.061-0.238h-0.394v-2.035c0.485-0.176 1.182-0.264 2.092-0.264 1.697 0 2.668 0.67 2.91 2.009 1.010-1.339 2.435-2.009 4.274-2.009 2.102 0 3.547 0.731 4.335 2.194 1.132-1.463 2.627-2.194 4.487-2.194 1.758 0 3.052 0.449 3.88 1.348 0.849 0.899 1.273 2.132 1.273 3.701v8.644h-3.577v-8.221c0-0.775-0.172-1.445-0.515-2.009-0.364-0.529-1.021-0.793-1.97-0.793-1.233 0-2.233 0.476-3.001 1.427 0.101 0.405 0.152 0.881 0.152 1.427v8.168h-3.577v-8.194c0-0.388-0.030-0.758-0.091-1.11-0.101-0.352-0.232-0.652-0.394-0.899-0.243-0.264-0.505-0.467-0.788-0.608-0.364-0.141-0.778-0.211-1.243-0.211-0.485 0-1 0.115-1.546 0.344s-0.97 0.511-1.273 0.846v9.833h-3.607z"></path>
<path d="M52.182 5.091c-0.606 0-1.101-0.167-1.485-0.502-0.364-0.352-0.546-0.793-0.546-1.322 0-0.564 0.182-1.004 0.546-1.322 0.384-0.335 0.889-0.502 1.516-0.502 0.647 0 1.152 0.159 1.516 0.476s0.546 0.758 0.546 1.322c0 0.564-0.192 1.013-0.576 1.348-0.364 0.335-0.869 0.502-1.516 0.502zM50.636 21.163v-10.309c0-0.405-0.121-0.687-0.364-0.846-0.283-0.141-0.657-0.22-1.122-0.238h-0.333v-2.035c0.626-0.176 1.394-0.264 2.304-0.264 2.082 0 3.122 0.89 3.122 2.67v11.023h-3.607z"></path>
<path d="M33.293 21.162l5.153-6.793-4.911-6.635h3.941l3.213 4.361 3.274-4.361h3.425l-4.911 6.476 5.093 6.952h-3.91l-3.456-4.679-3.486 4.679h-3.425z"></path>
<path d="M26.421 21.4c-2.465 0-4.375-0.599-5.729-1.797-1.354-1.216-2.031-2.872-2.031-4.969 0-2.115 0.586-3.833 1.758-5.154 1.192-1.339 2.961-2.009 5.305-2.009 2.041 0 3.597 0.529 4.668 1.586 1.071 1.040 1.607 2.441 1.607 4.203 0 0.405-0.010 0.687-0.030 0.846s-0.030 0.361-0.030 0.608c-0.040 0.247-0.071 0.414-0.091 0.502h-9.579c0.202 2.538 1.809 3.806 4.82 3.806 1.496 0 2.89-0.22 4.183-0.661v2.3c-1.354 0.493-2.971 0.74-4.85 0.74zM22.329 13.153h6.245c0.040-1.128-0.182-1.974-0.667-2.538-0.525-0.564-1.263-0.846-2.213-0.846-1.96 0-3.082 1.128-3.365 3.383z"></path>
<path d="M14.549 21.4c-2.304 0-3.456-1.172-3.456-3.516v-14.617h-3.092c-1.435 0-2.152 0.767-2.152 2.3v2.168h2.85v2.353h-2.849v11.075h-3.577v-11.023h-2.213v-2.405h2.213v-2.168c0-1.48 0.445-2.626 1.334-3.436s2.152-1.216 3.789-1.216h7.275v16.362c0 0.564 0.101 0.996 0.303 1.295 0.222 0.282 0.637 0.423 1.243 0.423h0.303v2.168c-0.182 0.070-0.354 0.115-0.515 0.132-0.687 0.070-1.172 0.106-1.455 0.106z"></path>
<path d="M82.395 29.375c-0.434 0.241-0.954 0.362-1.559 0.362s-1.107-0.081-1.503-0.245v-0.665c0.262 0.085 0.576 0.15 0.942 0.196 0.15 0.026 0.333 0.039 0.55 0.039 0.351 0 0.658-0.055 0.92-0.166 0.269-0.111 0.404-0.3 0.404-0.567 0-0.189-0.082-0.346-0.247-0.47-0.172-0.117-0.486-0.235-0.942-0.352-0.194-0.046-0.396-0.111-0.606-0.196-0.329-0.111-0.587-0.274-0.774-0.489-0.179-0.222-0.269-0.483-0.269-0.782 0-0.469 0.202-0.809 0.606-1.017 0.404-0.215 0.894-0.323 1.469-0.323 0.456 0 0.897 0.062 1.324 0.186v0.665c-0.374-0.13-0.815-0.196-1.324-0.196-0.314 0-0.591 0.052-0.83 0.157-0.239 0.098-0.359 0.271-0.359 0.518 0 0.378 0.393 0.649 1.178 0.812 0.247 0.059 0.456 0.121 0.628 0.186 0.179 0.065 0.355 0.15 0.527 0.254s0.299 0.238 0.381 0.401c0.090 0.163 0.135 0.352 0.135 0.567 0 0.509-0.217 0.884-0.651 1.125z"></path>
<path d="M76.884 29.737c-0.867 0-1.514-0.225-1.941-0.675s-0.639-1.063-0.639-1.839 0.213-1.389 0.639-1.839c0.434-0.456 1.084-0.685 1.952-0.685 0.209 0 0.396 0.010 0.561 0.029 0.142 0.026 0.284 0.055 0.426 0.088 0.127 0.026 0.243 0.065 0.348 0.117v0.665c-0.105-0.039-0.232-0.081-0.381-0.127-0.127-0.033-0.262-0.062-0.404-0.088-0.142-0.020-0.295-0.029-0.46-0.029-0.591 0-1.021 0.176-1.29 0.528-0.269 0.346-0.404 0.789-0.404 1.33 0 1.245 0.565 1.868 1.694 1.868 0.194 0 0.355-0.013 0.482-0.039 0.344-0.052 0.595-0.111 0.752-0.176v0.665c-0.367 0.137-0.811 0.205-1.335 0.205z"></path>
<path d="M72.332 23.672c-0.165 0-0.303-0.052-0.415-0.157-0.12-0.098-0.179-0.238-0.179-0.421 0-0.17 0.052-0.307 0.157-0.411 0.112-0.111 0.262-0.166 0.449-0.166s0.337 0.055 0.449 0.166c0.112 0.104 0.168 0.238 0.168 0.401 0 0.169-0.056 0.31-0.168 0.421s-0.265 0.166-0.46 0.166zM71.94 29.668v-3.893c0-0.143-0.052-0.251-0.157-0.323-0.12-0.065-0.273-0.101-0.46-0.108h-0.112v-0.567c0.254-0.052 0.479-0.078 0.673-0.078 0.673 0 1.010 0.29 1.010 0.871v4.098h-0.954z"></path>
<path d="M69.63 29.736c-0.92 0-1.38-0.486-1.38-1.457v-2.856h-0.897v-0.646h0.897v-1.301l0.942-0.166v1.467h1.256v0.646h-1.256v2.866c0 0.522 0.247 0.782 0.74 0.782 0.090 0 0.153-0.003 0.191-0.010 0.105 0 0.202-0.010 0.292-0.029v0.636c-0.007 0-0.037 0.003-0.090 0.010-0.045 0.013-0.082 0.023-0.112 0.029-0.194 0.020-0.389 0.029-0.583 0.029z"></path>
<path d="M62.976 31.859l0.897-2.201-2.064-4.881h0.976l1.57 3.707 1.514-3.707h0.897l-2.894 7.082h-0.897z"></path>
<path d="M60.655 29.736c-0.71 0-1.066-0.372-1.066-1.115v-5.448c0-0.143-0.045-0.248-0.135-0.313-0.097-0.065-0.221-0.101-0.37-0.108-0.022-0.006-0.052-0.010-0.090-0.010h-0.090v-0.567c0.052-0.026 0.108-0.042 0.168-0.049 0.15-0.026 0.318-0.039 0.505-0.039 0.643 0 0.965 0.254 0.965 0.763v5.546c0 0.228 0.045 0.398 0.135 0.509s0.258 0.169 0.505 0.176h0.056v0.587c-0.007 0-0.030 0.003-0.067 0.010-0.037 0.013-0.067 0.023-0.090 0.029-0.135 0.020-0.277 0.029-0.426 0.029z"></path>
<path d="M57.762 29.737c-0.494 0-0.811-0.238-0.953-0.714-0.023 0.020-0.064 0.055-0.123 0.108-0.052 0.052-0.097 0.095-0.135 0.127-0.366 0.32-0.845 0.479-1.436 0.479-0.509 0-0.927-0.114-1.256-0.342s-0.494-0.558-0.494-0.988c0-0.991 0.83-1.519 2.49-1.585l0.897-0.039v-0.235c0-0.404-0.086-0.695-0.258-0.87-0.165-0.183-0.475-0.274-0.931-0.274-0.471 0-1.036 0.075-1.694 0.225v-0.655c0.501-0.183 1.096-0.274 1.784-0.274 1.368 0 2.053 0.509 2.053 1.526v2.445c0 0.287 0.224 0.43 0.673 0.43h0.056v0.567l-0.067 0.019c-0.037 0.007-0.071 0.013-0.101 0.020-0.105 0.020-0.273 0.029-0.505 0.029zM55.261 29.081c0.277 0 0.553-0.049 0.83-0.147 0.277-0.104 0.497-0.245 0.662-0.421v-1.125l-0.729 0.029c-0.232 0.013-0.426 0.029-0.583 0.049-0.15 0.020-0.322 0.062-0.516 0.127-0.187 0.059-0.329 0.153-0.426 0.284-0.097 0.124-0.146 0.28-0.146 0.47 0 0.235 0.082 0.417 0.247 0.548 0.172 0.124 0.393 0.186 0.662 0.186z"></path>
<path d="M47.631 29.668v-3.893c0-0.15-0.056-0.261-0.168-0.333-0.105-0.052-0.265-0.085-0.482-0.098h-0.078v-0.567c0.254-0.052 0.479-0.078 0.673-0.078 0.561 0 0.882 0.232 0.965 0.695 0.112-0.117 0.262-0.235 0.449-0.352 0.449-0.228 0.89-0.342 1.324-0.342 1.279 0 1.918 0.649 1.918 1.946v3.023h-0.953v-3.023c0-0.828-0.415-1.242-1.245-1.242-0.591 0-1.073 0.176-1.447 0.528v3.736h-0.953z"></path>
<path d="M45.624 29.737c-0.494 0-0.811-0.238-0.953-0.714-0.023 0.020-0.064 0.055-0.123 0.108-0.052 0.052-0.097 0.095-0.135 0.127-0.367 0.32-0.845 0.479-1.436 0.479-0.509 0-0.927-0.114-1.256-0.342s-0.494-0.558-0.494-0.988c0-0.991 0.83-1.519 2.49-1.585l0.897-0.039v-0.235c0-0.404-0.086-0.695-0.258-0.87-0.165-0.183-0.475-0.274-0.931-0.274-0.471 0-1.036 0.075-1.694 0.225v-0.655c0.501-0.183 1.096-0.274 1.784-0.274 1.368 0 2.053 0.509 2.053 1.526v2.445c0 0.287 0.224 0.43 0.673 0.43h0.056v0.567l-0.067 0.019c-0.037 0.007-0.071 0.013-0.101 0.020-0.105 0.020-0.273 0.029-0.505 0.029zM43.123 29.081c0.277 0 0.553-0.049 0.83-0.147 0.277-0.104 0.497-0.245 0.662-0.421v-1.125l-0.729 0.029c-0.232 0.013-0.426 0.029-0.583 0.049-0.15 0.020-0.322 0.062-0.516 0.127-0.187 0.059-0.329 0.153-0.426 0.284-0.097 0.124-0.146 0.28-0.146 0.47 0 0.235 0.082 0.417 0.247 0.548 0.172 0.124 0.393 0.186 0.662 0.186z"></path>
</svg>
