<!-- Generated by IcoMoon.io -->
<svg version="1.1" xmlns="http://www.w3.org/2000/svg" width="32" height="32" viewBox="0 0 32 32">
<title>ph-image</title>
<path d="M27 5h-22c-0.53 0-1.039 0.211-1.414 0.586s-0.586 0.884-0.586 1.414v18c0 0.53 0.211 1.039 0.586 1.414s0.884 0.586 1.414 0.586h22c0.53 0 1.039-0.211 1.414-0.586s0.586-0.884 0.586-1.414v-18c0-0.53-0.211-1.039-0.586-1.414s-0.884-0.586-1.414-0.586zM27 7v12.844l-3.259-3.258c-0.186-0.186-0.406-0.333-0.649-0.434s-0.503-0.152-0.765-0.152c-0.263 0-0.523 0.052-0.765 0.152s-0.463 0.248-0.649 0.434l-2.5 2.5-5.5-5.5c-0.375-0.375-0.884-0.585-1.414-0.585s-1.039 0.211-1.414 0.585l-5.085 5.085v-11.671h22zM5 21.5l6.5-6.5 10 10h-16.5v-3.5zM27 25h-2.671l-4.5-4.5 2.5-2.5 4.671 4.672v2.328zM18 12.5c0-0.297 0.088-0.587 0.253-0.833s0.399-0.439 0.673-0.553c0.274-0.114 0.576-0.143 0.867-0.085s0.558 0.201 0.768 0.411c0.21 0.21 0.353 0.477 0.41 0.768s0.028 0.593-0.085 0.867c-0.114 0.274-0.306 0.508-0.552 0.673s-0.537 0.253-0.833 0.253c-0.398 0-0.779-0.158-1.061-0.439s-0.439-0.663-0.439-1.061z"></path>
</svg>
