<!-- Generated by IcoMoon.io -->
<svg version="1.1" xmlns="http://www.w3.org/2000/svg" width="32" height="32" viewBox="0 0 32 32">
<title>warning</title>
<path d="M16 23.778c0.441 0 0.81-0.149 1.109-0.448s0.447-0.668 0.446-1.108c-0.001-0.44-0.15-0.809-0.448-1.108s-0.667-0.448-1.108-0.448c-0.441 0-0.81 0.149-1.108 0.448s-0.447 0.668-0.448 1.108c-0.001 0.44 0.148 0.809 0.448 1.109s0.669 0.448 1.108 0.446zM14.444 17.556h3.111v-9.333h-3.111v9.333zM16 31.556c-2.152 0-4.174-0.409-6.067-1.226s-3.539-1.925-4.939-3.324c-1.4-1.399-2.508-3.045-3.324-4.939s-1.225-3.916-1.226-6.067c-0.001-2.151 0.408-4.173 1.226-6.067s1.926-3.54 3.324-4.939 3.044-2.507 4.939-3.324c1.895-0.817 3.917-1.226 6.067-1.226s4.172 0.409 6.067 1.226 3.541 1.925 4.939 3.324c1.398 1.399 2.507 3.045 3.326 4.939s1.227 3.916 1.224 6.067c-0.003 2.151-0.412 4.173-1.226 6.067s-1.922 3.54-3.324 4.939c-1.402 1.399-3.048 2.508-4.939 3.326s-3.913 1.226-6.067 1.224zM16 28.444c3.474 0 6.417-1.206 8.828-3.617s3.617-5.354 3.617-8.828c0-3.474-1.206-6.417-3.617-8.828s-5.354-3.617-8.828-3.617c-3.474 0-6.417 1.206-8.828 3.617s-3.617 5.354-3.617 8.828c0 3.474 1.206 6.417 3.617 8.828s5.354 3.617 8.828 3.617z"></path>
</svg>
